<svg width="715" height="693" viewBox="0 0 715 693" fill="none" xmlns="http://www.w3.org/2000/svg">
<mask id="mask0_111_3987" style="mask-type:alpha" maskUnits="userSpaceOnUse" x="0" y="0" width="715" height="693">
<rect width="715" height="693" rx="24" fill="#868686"/>
</mask>
<g mask="url(#mask0_111_3987)">
<path d="M686.679 531.709H29V532.038H686.679V531.709Z" fill="#E6E6E6"/>
<path d="M193.191 551.61H149.623V551.939H193.191V551.61Z" fill="#E6E6E6"/>
<path d="M135.836 551.61H110.59V551.939H135.836V551.61Z" fill="#E6E6E6"/>
<path d="M305.954 556.451H280.709V556.779H305.954V556.451Z" fill="#E6E6E6"/>
<path d="M437.571 563.794H380.757V564.123H437.571V563.794Z" fill="#E6E6E6"/>
<path d="M369.046 563.794H360.716V564.123H369.046V563.794Z" fill="#E6E6E6"/>
<path d="M625.308 556.451H502.091V556.779H625.308V556.451Z" fill="#E6E6E6"/>
<path d="M340.758 473.046H86.7639C82.6245 473.046 79.2559 469.678 79.2559 465.538V108.508C79.2559 104.369 82.6245 101 86.7639 101H340.758C344.896 101 348.265 104.369 348.265 108.508V465.538C348.265 469.678 344.896 473.046 340.758 473.046ZM86.7639 101.33C82.8047 101.33 79.5847 104.55 79.5847 108.509V465.54C79.5847 469.499 82.8047 472.719 86.7639 472.719H340.758C344.716 472.719 347.936 469.499 347.936 465.54V108.508C347.936 104.55 344.716 101.329 340.758 101.329L86.7639 101.33Z" fill="#E6E6E6"/>
<path d="M625.265 473.046H371.272C367.134 473.046 363.765 469.678 363.765 465.538V108.508C363.765 104.369 367.134 101 371.272 101H625.265C629.405 101 632.773 104.369 632.773 108.508V465.538C632.774 469.678 629.405 473.046 625.265 473.046ZM371.272 101.33C367.314 101.33 364.094 104.55 364.094 108.509V465.54C364.094 469.499 367.314 472.719 371.272 472.719H625.265C629.224 472.719 632.444 469.499 632.444 465.54V108.508C632.444 104.55 629.224 101.329 625.265 101.329L371.272 101.33Z" fill="#E6E6E6"/>
<path d="M380.725 419.349H351.802V534.093H380.725V419.349Z" fill="#E0E0E0"/>
<path d="M375.232 534.095H380.725V518.468H369.472L375.232 534.095Z" fill="#FAFAFA"/>
<path d="M253.984 419.349H225.06V534.093H253.984V419.349Z" fill="#E0E0E0"/>
<path d="M380.726 419.349H249.189V524.506H380.726V419.349Z" fill="#FAFAFA"/>
<path d="M375.956 424.519V452.34H253.959V424.519H375.956ZM376.463 424.011H253.45V452.849H376.463V424.011Z" fill="#E0E0E0"/>
<path d="M254.682 534.095H249.189V518.468H260.442L254.682 534.095Z" fill="#FAFAFA"/>
<path d="M312.048 438.429C312.048 440.035 313.35 441.338 314.957 441.338C316.563 441.338 317.867 440.036 317.867 438.429C317.867 436.823 316.564 435.519 314.957 435.519C313.351 435.521 312.048 436.823 312.048 438.429Z" fill="#E6E6E6"/>
<path d="M375.956 458.017V485.838H253.959V458.017H375.956ZM376.463 457.509H253.45V486.347H376.463V457.509Z" fill="#E0E0E0"/>
<path d="M312.048 471.927C312.048 473.533 313.35 474.837 314.957 474.837C316.563 474.837 317.867 473.534 317.867 471.927C317.867 470.32 316.564 469.017 314.957 469.017C313.351 469.019 312.048 470.321 312.048 471.927Z" fill="#E6E6E6"/>
<path d="M375.956 491.515V519.336H253.959V491.515H375.956ZM376.463 491.008H253.45V519.845H376.463V491.008Z" fill="#E0E0E0"/>
<path d="M312.048 505.427C312.048 507.033 313.35 508.336 314.957 508.336C316.563 508.336 317.867 507.034 317.867 505.427C317.867 503.819 316.564 502.517 314.957 502.517C313.351 502.517 312.048 503.819 312.048 505.427Z" fill="#E6E6E6"/>
<path d="M236.313 352.712H207.39V534.095H236.313V352.712Z" fill="#E0E0E0"/>
<path d="M230.82 534.095H236.313V518.468H225.06L230.82 534.095Z" fill="#FAFAFA"/>
<path d="M128.213 352.712H99.2899V534.095H128.213V352.712Z" fill="#E0E0E0"/>
<path d="M236.313 352.712H123.42V524.506H236.313V352.712Z" fill="#FAFAFA"/>
<path d="M231.453 357.576V396.471H128.28V357.576H231.453ZM232.052 356.978H127.682V397.071H232.052V356.978Z" fill="#E0E0E0"/>
<path d="M231.453 401.199V504.37H182.31V401.199H231.453ZM232.052 400.6H181.71V504.971H232.052V400.6Z" fill="#E0E0E0"/>
<path d="M177.423 401.199V504.37H128.28V401.199H177.423ZM178.023 400.6H127.682V504.971H178.023V400.6Z" fill="#E0E0E0"/>
<path d="M128.913 534.095H123.42V518.468H134.673L128.913 534.095Z" fill="#FAFAFA"/>
<path d="M176.958 377.024C176.958 378.631 178.26 379.933 179.867 379.933C181.474 379.933 182.777 378.631 182.777 377.024C182.777 375.418 181.475 374.114 179.867 374.114C178.26 374.116 176.958 375.418 176.958 377.024Z" fill="#E6E6E6"/>
<path d="M187.373 450.325C187.373 451.931 188.675 453.234 190.282 453.234C191.89 453.234 193.192 451.932 193.192 450.325C193.192 448.719 191.89 447.415 190.282 447.415C188.675 447.415 187.373 448.718 187.373 450.325Z" fill="#E6E6E6"/>
<path d="M166.542 450.325C166.542 451.931 167.844 453.234 169.451 453.234C171.057 453.234 172.361 451.932 172.361 450.325C172.361 448.719 171.059 447.415 169.451 447.415C167.845 447.415 166.542 448.718 166.542 450.325Z" fill="#E6E6E6"/>
<path d="M163.265 302.141H151.064C151.064 302.141 153.181 313.42 153.181 320.057C153.181 326.694 143.9 352.712 157.164 352.712C170.427 352.712 161.147 326.693 161.147 320.057C161.146 313.419 163.265 302.141 163.265 302.141Z" fill="#E0E0E0"/>
<path d="M116.87 328.815V336.742C116.87 345.525 124.055 352.711 132.839 352.711H140.767C149.55 352.711 156.735 345.525 156.735 336.742V328.815H116.87Z" fill="#F5F5F5"/>
<path d="M286.372 402.629C286.372 411.826 296.673 419.351 309.262 419.351H320.625C333.216 419.351 343.516 411.826 343.516 402.629H286.372Z" fill="#E0E0E0"/>
<path d="M587.509 389.166C580.616 394.792 571.104 405.094 562.387 419.587C556.581 429.24 553.082 439.353 551.546 452.715C551.579 437.589 551.626 421.338 551.679 406.001C553.429 402.054 557.428 392.958 560.297 385.771C569.869 361.791 573.433 355.894 582.042 335.21C593.524 307.622 605.29 274.886 601.921 277.503C595.056 282.832 568.748 332.095 565.904 339.147C556.123 363.402 553.399 381.082 551.706 398.143C551.759 383.737 551.815 370.51 551.871 360.304C552.047 327.015 552.614 316.271 552.89 312.958C553.954 311.274 555.212 309.312 555.943 308.254C562.122 299.319 564.506 291.707 570.329 278.38C578.58 259.495 585.686 225.967 583.609 227.658C574.959 234.699 568.136 249.838 559.171 269.128C550.207 288.417 552.769 299.51 550.991 315.985C550.617 319.218 550.332 331.418 550.125 348.327C547.8 330.313 543.438 318.442 535.48 307.655C525.691 294.386 516.222 285.424 509.274 280.742C502.326 276.062 521.271 308.654 530.332 322.88C538.4 335.548 545.832 346.727 550.022 357.737C549.8 380.653 549.698 409.672 549.698 436.685C547.619 424.391 544.226 411.155 539.698 400.904C534.258 388.588 525.888 369.699 519.226 363.291C517.625 361.753 526.192 398.49 531.689 408.26C537.187 418.029 541.223 427.235 544.683 432.773C545.491 434.064 548.169 439.047 549.699 441.912C549.713 474.888 549.882 503.986 550.168 513.891H551.593C551.496 511.335 551.48 494.56 551.51 472.358C554.941 460.303 562.787 446.547 569.261 433.997C576.328 420.296 594.403 383.539 587.509 389.166Z" fill="#E0E0E0"/>
<path d="M571.506 534.095H530.279L527.167 493.682H574.618L571.506 534.095Z" fill="#F0F0F0"/>
<path d="M577.691 498.391H524.094L522.559 484.756H579.226L577.691 498.391Z" fill="#F5F5F5"/>
<path d="M192.446 128.024H118.718V208.983H192.446V128.024Z" fill="#E0E0E0"/>
<path d="M200.432 128.024H124.275V208.983H200.432V128.024Z" fill="#F5F5F5"/>
<path d="M194.051 202.603V134.404H130.654V202.603H194.051Z" fill="white"/>
<path d="M178.685 186.074V150.935H146.022V186.074H178.685Z" fill="#F5F5F5"/>
<path d="M568.364 137.462H499.873V212.67H568.364V137.462Z" fill="#E0E0E0"/>
<path d="M575.782 137.462H505.036V212.67H575.782V137.462Z" fill="#F5F5F5"/>
<path d="M569.855 206.744V143.389H510.963V206.744H569.855Z" fill="white"/>
<path d="M540.408 193.439C550.556 193.439 558.781 185.214 558.781 175.066C558.781 164.919 550.556 156.694 540.408 156.694C530.261 156.694 522.036 164.919 522.036 175.066C522.036 185.214 530.261 193.439 540.408 193.439Z" fill="#F5F5F5"/>
<path d="M269.038 176.298H214.346V236.354H269.038V176.298Z" fill="#E0E0E0"/>
<path d="M274.964 176.298H218.469V236.354H274.964V176.298Z" fill="#F5F5F5"/>
<path d="M270.231 231.622V181.031H223.203V231.622H270.231Z" fill="white"/>
<path d="M246.716 193.537L233.855 215.815H259.578L246.716 193.537Z" fill="#F5F5F5"/>
<path d="M383.839 591.114C524.69 591.114 638.873 584.446 638.873 576.22C638.873 567.995 524.69 561.327 383.839 561.327C242.988 561.327 128.806 567.995 128.806 576.22C128.806 584.446 242.988 591.114 383.839 591.114Z" fill="#F5F5F5"/>
<path d="M514.383 243.69L501.336 238.4C501.336 238.4 484.118 269.801 479.187 271.386C472.476 273.543 458.598 279.54 450.35 280.663C449.239 281.963 447.405 286.062 447.58 287.556C458.645 291.245 482.953 286.346 488.156 282.483C500.018 273.671 514.383 243.69 514.383 243.69Z" fill="#E58A7B"/>
<path d="M518.4 236.565C520.827 245.56 507.649 263.63 507.649 263.63L490.336 253.918C490.336 253.918 493.564 246.49 497.515 238.926C503.896 226.71 515.629 226.298 518.4 236.565Z" fill="#C64242"/>
<path opacity="0.2" d="M518.4 236.565C520.827 245.56 507.649 263.63 507.649 263.63L490.336 253.918C490.336 253.918 493.564 246.49 497.515 238.926C503.896 226.71 515.629 226.298 518.4 236.565Z" fill="black"/>
<path opacity="0.2" d="M497.239 257.785L504.038 261.597L505.227 240.728C501.281 243.769 498.482 252.92 497.239 257.785Z" fill="black"/>
<path d="M507.038 229.788C507.038 229.788 493.597 259.694 501.433 315.388C517.394 315.388 546.637 315.388 554.403 315.388C555.245 307.256 552.461 267.59 562.55 229.278C562.55 229.278 553.577 227.456 544.949 227.039C538.2 226.713 528.414 226.497 522.432 227.04C514.545 227.756 507.038 229.788 507.038 229.788Z" fill="#C64242"/>
<path opacity="0.2" d="M507.038 229.788C507.038 229.788 493.597 259.694 501.433 315.388C517.394 315.388 546.637 315.388 554.403 315.388C555.245 307.256 552.461 267.59 562.55 229.278C562.55 229.278 553.577 227.456 544.949 227.039C538.2 226.713 528.414 226.497 522.432 227.04C514.545 227.756 507.038 229.788 507.038 229.788Z" fill="black"/>
<path d="M494.754 577.409C494.671 578.822 514.754 579.966 539.61 579.966C564.467 579.966 584.684 578.822 584.767 577.409C584.849 575.997 564.767 574.852 539.91 574.852C515.054 574.851 494.837 575.997 494.754 577.409Z" fill="#E8ECF1"/>
<path d="M531.345 541.916L521.919 545.547L530.002 566.526L539.428 562.895L531.345 541.916Z" fill="#E58A7B"/>
<path d="M572.003 567.297H562.099L558.466 544.362H568.37L572.003 567.297Z" fill="#E58A7B"/>
<path d="M561.462 566.15H572.589C572.994 566.15 573.328 566.431 573.393 566.826L574.833 575.628C574.983 576.541 574.215 577.405 573.28 577.39C569.399 577.323 567.525 577.095 562.633 577.095C559.624 577.095 553.403 577.408 549.245 577.408C545.18 577.408 544.786 573.298 546.511 572.925C554.239 571.256 557.248 568.954 559.82 566.759C560.283 566.363 560.871 566.15 561.462 566.15Z" fill="#263238"/>
<path d="M528.492 562.683L539.042 559.615C539.437 559.501 539.843 559.67 540.018 560.024L543.927 567.911C544.333 568.728 543.854 569.754 542.938 570.004C539.117 571.047 536.548 571.699 531.764 573.09C528.459 574.05 525.097 575.615 521.831 576.657C519.57 577.378 514.26 577.407 511.509 577.407C507.443 577.407 506.537 573.12 508.28 572.924C512.69 572.429 513.282 572.658 515.717 571.438C519.742 569.419 522.855 567.747 526.34 564.097C526.947 563.463 527.659 562.925 528.492 562.683Z" fill="#263238"/>
<path d="M452.018 280.569L441.12 275.983L436.634 288.056C436.634 288.056 442.923 289.196 450.104 288.056L452.018 280.569Z" fill="#E58A7B"/>
<path d="M433.022 275.687L432.734 283.72L436.634 288.056L441.12 275.983L433.022 275.687Z" fill="#E58A7B"/>
<path d="M531.38 541.892L521.953 545.531L526.126 556.343L535.554 552.704L531.38 541.892Z" fill="#CF6F64"/>
<path d="M568.372 544.369H558.465L560.343 556.19H570.25L568.372 544.369Z" fill="#CF6F64"/>
<path opacity="0.2" d="M499.752 300.323C499.942 302.702 500.172 305.134 500.455 307.635L539.843 294.848C545.994 293.009 551.346 289.143 554.996 283.86C555.145 280.345 555.347 276.655 555.645 272.803C555.78 270.924 555.942 269.004 556.118 267.059C556.308 265.032 556.523 262.963 556.767 260.882L499.752 300.323Z" fill="black"/>
<path d="M512.613 257.18L511.271 257.021C512.052 250.457 516.952 245.27 522.128 245.393L522.088 246.746C517.62 246.615 513.315 251.294 512.613 257.18Z" fill="white"/>
<path d="M519.621 269.326C519.547 269.326 519.474 269.325 519.399 269.324L519.438 267.972C523.962 268.137 528.212 263.422 528.914 257.535L530.256 257.696C529.485 264.166 524.74 269.326 519.621 269.326Z" fill="white"/>
<path d="M544.205 201.684C542.36 208.929 540.164 222.204 544.95 227.038C544.95 227.038 541.607 234.387 528.144 234.387C515.842 234.387 522.432 227.038 522.432 227.038C530.624 225.108 530.767 219.114 529.69 213.484L544.205 201.684Z" fill="#E58A7B"/>
<path d="M538.287 206.5L529.697 213.48C529.956 214.813 530.14 216.163 530.157 217.476C532.668 219.977 537.708 213.642 538.225 210.41C538.482 208.8 538.505 207.251 538.287 206.5Z" fill="#CF6F64"/>
<path d="M514.933 201.595C516.192 203.849 518.413 205.253 520.513 205.719C523.671 206.423 525.259 203.518 524.388 200.594C523.604 197.962 521.017 194.425 517.843 195.031C514.716 195.629 513.493 199.016 514.933 201.595Z" fill="#CF6F64"/>
<path d="M520.144 178.406C515.225 180.661 513.491 200.203 519.676 203.093C525.861 205.981 529.462 174.138 520.144 178.406Z" fill="#263238"/>
<path d="M545.706 190.781C544.529 200.591 544.335 206.364 539.086 211.399C531.188 218.973 519.342 214.481 517.576 204.688C515.985 195.874 518.178 181.312 528.01 177.408C537.697 173.562 546.883 180.971 545.706 190.781Z" fill="#E58A7B"/>
<path d="M529.547 183.49C536.823 181.629 542.18 180.361 540.268 186.435C537.722 194.527 534.668 202.367 538.765 202.732C541.256 202.955 552.307 198.265 550.903 193.525C549.681 189.395 554.818 188.281 555.765 186.175C559.175 178.59 549.43 179.575 551.163 174.986C552.852 170.518 543.312 162.966 538.026 166.656C529.469 172.629 514.764 172.544 522.495 162.747C528.032 155.731 518.153 157.171 518.153 157.171C518.153 157.171 524.12 160.711 514.077 166.182C503.43 171.981 513.176 187.678 529.547 183.49Z" fill="#263238"/>
<path d="M549.503 201.595C547.979 203.849 545.594 205.253 543.439 205.719C540.198 206.423 538.953 203.518 540.165 200.594C541.259 197.962 544.26 194.425 547.363 195.031C550.419 195.629 551.245 199.016 549.503 201.595Z" fill="#E58A7B"/>
<path d="M501.434 315.387C501.434 315.387 492.543 394.963 491.849 425.163C491.128 456.577 521.981 554.587 521.981 554.587L537.78 547.952C537.78 547.952 519.384 458.412 521.94 427.56C524.726 393.927 536.252 315.386 536.252 315.386H501.434V315.387Z" fill="#C64242"/>
<path opacity="0.2" d="M523.529 337.237C516.446 351.943 521.218 381.017 525.056 398.252C526.516 386.087 528.246 372.882 529.895 360.662C529.733 341.874 528.273 327.37 523.529 337.237Z" fill="black"/>
<path d="M537.065 542.794C537.139 542.764 538.938 547.83 538.938 547.83L520.729 555.476L517.86 550.142L537.065 542.794Z" fill="#C64242"/>
<path d="M520.223 315.387C520.223 315.387 527.025 391.071 531.533 419.424C536.469 450.473 555.86 553.901 555.86 553.901H573.999C573.999 553.901 563.13 452.98 561.077 422.239C558.849 388.874 554.402 315.387 554.402 315.387H520.223Z" fill="#C64242"/>
<path d="M574.277 549.175C574.354 549.175 574.883 554.245 574.883 554.245H554.946L553.523 548.426L574.277 549.175Z" fill="#C64242"/>
<path opacity="0.2" d="M567.328 543.184C567.242 543.184 567.17 543.119 567.161 543.034C567.062 542.116 557.261 451.002 555.417 423.382C553.417 393.409 549.393 326.951 549.352 326.283C549.347 326.189 549.418 326.109 549.51 326.104C549.514 326.104 549.518 326.104 549.521 326.104C549.609 326.104 549.685 326.173 549.69 326.263C549.73 326.93 553.753 393.388 555.755 423.359C557.598 450.973 567.398 542.08 567.496 542.997C567.507 543.09 567.44 543.173 567.348 543.183C567.34 543.184 567.333 543.184 567.328 543.184Z" fill="black"/>
<path d="M530.665 193.524C530.617 194.322 530.157 194.97 529.635 194.97C529.113 194.97 528.727 194.323 528.775 193.524C528.821 192.725 529.282 192.077 529.804 192.077C530.327 192.077 530.712 192.725 530.665 193.524Z" fill="#263238"/>
<path d="M521.636 193.524C521.589 194.322 521.129 194.97 520.606 194.97C520.084 194.97 519.699 194.323 519.746 193.524C519.793 192.725 520.254 192.077 520.776 192.077C521.298 192.077 521.684 192.725 521.636 193.524Z" fill="#263238"/>
<path d="M524.483 193.921C524.483 193.921 522.396 198.53 520.265 200.753C521.602 202.072 524.039 201.468 524.039 201.468L524.483 193.921Z" fill="#DF5753"/>
<path d="M524.713 204.82C524.584 204.82 524.484 204.715 524.492 204.586C524.5 204.457 524.611 204.352 524.74 204.352C528.247 204.352 530.027 201.902 530.045 201.877C530.124 201.769 530.271 201.738 530.374 201.809C530.478 201.88 530.5 202.025 530.423 202.134C530.344 202.242 528.471 204.82 524.713 204.82Z" fill="#263238"/>
<path d="M532.271 191.094C532.135 191.147 531.983 191.139 531.857 191.059C530.131 189.972 528.522 190.701 528.506 190.71C528.285 190.823 527.992 190.724 527.893 190.49C527.795 190.256 527.911 189.976 528.15 189.864C528.235 189.823 530.249 188.909 532.391 190.257C532.605 190.393 532.658 190.681 532.51 190.902C532.45 190.991 532.364 191.057 532.271 191.094Z" fill="#263238"/>
<path d="M518.145 188.47C518.08 188.452 518.017 188.419 517.966 188.369C517.782 188.198 517.782 187.902 517.966 187.707C519.802 185.767 521.931 186.063 522.02 186.076C522.27 186.104 522.437 186.352 522.383 186.609C522.329 186.864 522.082 187.04 521.829 187.003C521.758 186.993 520.097 186.781 518.63 188.329C518.5 188.469 518.309 188.517 518.145 188.47Z" fill="#263238"/>
<path d="M567.634 242.223L553.951 238.581C553.951 238.581 540.534 271.607 535.795 273.763C529.345 276.697 513.017 286.847 506.077 291.741C505.691 293.378 505.994 297.739 506.867 298.927C518.667 296.783 541.369 288.056 546.103 283.619C556.897 273.505 567.634 242.223 567.634 242.223Z" fill="#E58A7B"/>
<path d="M558.086 567.88C557.332 567.88 556.635 567.751 556.209 567.376C555.871 567.077 555.733 566.659 555.797 566.136C555.844 565.745 556.062 565.559 556.238 565.473C557.355 564.912 560.444 566.872 560.793 567.098C560.869 567.15 560.906 567.243 560.886 567.336C560.865 567.428 560.792 567.503 560.698 567.525C560 567.69 559.001 567.88 558.086 567.88ZM556.735 565.83C556.613 565.83 556.509 565.849 556.427 565.89C556.363 565.922 556.285 565.983 556.264 566.164C556.218 566.538 556.305 566.817 556.532 567.017C557.047 567.473 558.336 567.534 560.038 567.194C558.957 566.547 557.494 565.83 556.735 565.83Z" fill="#C64242"/>
<path d="M560.643 567.531C560.605 567.531 560.567 567.522 560.533 567.503C559.54 566.946 557.686 564.777 557.961 563.672C558.01 563.472 558.178 563.126 558.744 563.058C559.113 563.012 559.441 563.114 559.725 563.358C560.821 564.298 560.889 567.156 560.892 567.277C560.894 567.363 560.848 567.446 560.773 567.492C560.733 567.518 560.688 567.531 560.643 567.531ZM558.881 563.517C558.846 563.517 558.811 563.521 558.774 563.525C558.467 563.561 558.432 563.702 558.418 563.761C558.254 564.414 559.421 566.054 560.395 566.827C560.327 565.992 560.109 564.326 559.408 563.723C559.246 563.584 559.074 563.517 558.881 563.517Z" fill="#C64242"/>
<path d="M523.158 566.243C522.19 566.478 521.267 566.547 520.677 566.228C520.302 566.025 520.087 565.686 520.037 565.224C520.006 564.948 520.1 564.707 520.304 564.527C521.364 563.584 525.655 564.598 526.141 564.716C526.236 564.74 526.303 564.821 526.307 564.921C526.311 565.021 526.253 565.115 526.16 565.158C525.364 565.519 524.233 565.983 523.158 566.243ZM521.019 564.681C520.839 564.724 520.697 564.786 520.604 564.869C520.521 564.942 520.49 565.027 520.504 565.148C520.538 565.461 520.675 565.679 520.919 565.813C521.618 566.193 523.24 565.892 525.327 565.019C523.86 564.711 521.943 564.456 521.019 564.681Z" fill="#C64242"/>
<path d="M526.116 565.171C526.083 565.179 526.05 565.179 526.018 565.175C524.743 564.938 522.02 563.426 521.995 562.293C521.989 562.029 522.114 561.666 522.737 561.45C523.19 561.28 523.655 561.315 524.092 561.529C525.522 562.234 526.269 564.76 526.3 564.866C526.323 564.945 526.302 565.032 526.244 565.096C526.208 565.134 526.164 565.159 526.116 565.171ZM523.005 561.849C522.961 561.859 522.915 561.875 522.867 561.889C522.46 562.033 522.463 562.2 522.463 562.255C522.479 562.934 524.369 564.183 525.704 564.604C525.439 563.878 524.8 562.413 523.863 561.951C523.582 561.812 523.299 561.778 523.005 561.849Z" fill="#C64242"/>
<path d="M507.191 290.964L493.474 297.278L491.883 301.147L496.952 304.558C496.952 304.558 506.412 303.528 509.107 297.45L507.191 290.964Z" fill="#E58A7B"/>
<path d="M507.775 299.151C506.917 294.055 505.241 291.731 505.226 291.708L507.388 290.087C507.472 290.198 509.46 292.882 510.441 298.702L507.775 299.151Z" fill="#263238"/>
<path d="M510.111 292.83C510.555 293.931 509.841 295.257 508.514 295.794C507.187 296.331 505.752 295.873 505.307 294.772C504.863 293.671 505.577 292.345 506.904 291.808C508.23 291.273 509.666 291.729 510.111 292.83Z" fill="#263238"/>
<path d="M484.206 302.376L486.028 304.222L498.336 298.957L493.474 297.279L484.206 302.376Z" fill="#E58A7B"/>
<path opacity="0.2" d="M537.065 542.794C537.139 542.764 538.938 547.83 538.938 547.83L520.729 555.476L517.86 550.142L537.065 542.794Z" fill="black"/>
<path opacity="0.2" d="M574.277 549.175C574.354 549.175 574.883 554.245 574.883 554.245H554.946L553.523 548.426L574.277 549.175Z" fill="black"/>
<path d="M571.2 238.438C574.819 250.101 560.73 266.034 560.73 266.034L541.199 258.063C541.199 258.063 543.951 249.589 549.188 238.237C555.141 225.334 567.547 226.667 571.2 238.438Z" fill="#C64242"/>
<path opacity="0.2" d="M571.2 238.438C574.819 250.101 560.73 266.034 560.73 266.034L541.199 258.063C541.199 258.063 543.951 249.589 549.188 238.237C555.141 225.334 567.547 226.667 571.2 238.438Z" fill="black"/>
<path d="M377.097 121.543H368.696V122.895H377.097V121.543Z" fill="#C64242"/>
<path d="M485.915 175.158L484.898 197.728L486.248 197.788L487.265 175.218L485.915 175.158Z" fill="#C64242"/>
<path d="M483.298 127.625H328.087L313.638 450.834H468.849L483.298 127.625Z" fill="#C64242"/>
<path opacity="0.56" d="M478.664 132.061H323.453L309.005 455.269H464.216L478.664 132.061Z" fill="#FAFAFA"/>
<path opacity="0.07" d="M474.03 136.496H318.82L304.371 459.705H459.582L474.03 136.496Z" fill="#C64242"/>
<path d="M456.363 277.46H323.884L322.778 302.197H455.258L456.363 277.46Z" fill="white"/>
<path d="M396.75 259.419H324.691L324.196 270.486H396.254L396.75 259.419Z" fill="#C64242"/>
<path d="M453.38 344.206H320.9L319.794 368.942H452.274L453.38 344.206Z" fill="white"/>
<path opacity="0.47" d="M429.085 402.327H339.998L338.673 431.974H427.76L429.085 402.327Z" fill="#C64242"/>
<path d="M423.127 436.566H334.04C333.998 436.566 333.957 436.548 333.927 436.517C333.898 436.487 333.882 436.445 333.885 436.403L335.211 406.756C335.214 406.672 335.283 406.606 335.366 406.606H424.453C424.495 406.606 424.536 406.625 424.566 406.655C424.595 406.685 424.611 406.727 424.608 406.769L423.282 436.416C423.279 436.5 423.21 436.566 423.127 436.566ZM334.203 436.253H422.977L424.287 406.919H335.513L334.203 436.253Z" fill="white"/>
<path d="M381.18 326.165H321.706L321.212 337.233H380.684L381.18 326.165Z" fill="#C64242"/>
<path d="M427.386 197.583C427.054 204.989 424.37 211.829 420.066 217.385C413.567 225.806 403.387 231.281 392.182 231.281C380.976 231.281 371.299 225.806 365.554 217.385C361.747 211.829 359.674 204.991 360.005 197.583C360.838 178.97 376.596 163.886 395.195 163.886C413.807 163.885 428.217 178.97 427.386 197.583Z" fill="white"/>
<path d="M430.555 170.939C430.467 172.906 429.754 174.724 428.609 176.2C426.882 178.438 424.178 179.892 421.2 179.892C418.222 179.892 415.652 178.438 414.124 176.2C413.113 174.724 412.562 172.906 412.65 170.939C412.871 165.993 417.059 161.985 422.001 161.985C426.947 161.985 430.776 165.993 430.555 170.939Z" fill="#C64242"/>
<path d="M338.151 289.829C338.053 292.017 336.199 293.792 334.01 293.792C331.821 293.792 330.126 292.017 330.223 289.829C330.32 287.64 332.175 285.865 334.364 285.865C336.554 285.864 338.249 287.64 338.151 289.829Z" fill="#263238"/>
<path d="M355.891 289.829C355.794 292.017 353.939 293.792 351.75 293.792C349.561 293.792 347.866 292.017 347.963 289.829C348.061 287.64 349.915 285.865 352.104 285.865C354.293 285.865 355.99 287.64 355.891 289.829Z" fill="#263238"/>
<path d="M373.633 289.829C373.535 292.017 371.681 293.792 369.492 293.792C367.303 293.792 365.608 292.017 365.705 289.829C365.802 287.64 367.657 285.865 369.846 285.865C372.035 285.864 373.73 287.64 373.633 289.829Z" fill="#263238"/>
<path d="M335.167 356.574C335.07 358.763 333.215 360.537 331.027 360.537C328.838 360.537 327.142 358.763 327.24 356.574C327.337 354.385 329.192 352.609 331.38 352.609C333.569 352.611 335.265 354.385 335.167 356.574Z" fill="#263238"/>
<path d="M352.908 356.574C352.811 358.763 350.956 360.537 348.767 360.537C346.578 360.537 344.883 358.763 344.98 356.574C345.078 354.385 346.932 352.609 349.121 352.609C351.311 352.611 353.005 354.385 352.908 356.574Z" fill="#263238"/>
<path d="M370.648 356.574C370.551 358.763 368.696 360.537 366.507 360.537C364.319 360.537 362.623 358.763 362.72 356.574C362.818 354.385 364.672 352.609 366.861 352.609C369.05 352.609 370.747 354.385 370.648 356.574Z" fill="#263238"/>
<path d="M388.389 356.574C388.292 358.763 386.437 360.537 384.249 360.537C382.06 360.537 380.364 358.763 380.462 356.574C380.559 354.385 382.414 352.609 384.602 352.609C386.791 352.611 388.487 354.385 388.389 356.574Z" fill="#263238"/>
<path d="M406.13 356.574C406.032 358.763 404.178 360.537 401.989 360.537C399.8 360.537 398.105 358.763 398.202 356.574C398.299 354.385 400.154 352.609 402.343 352.609C404.532 352.611 406.227 354.385 406.13 356.574Z" fill="#263238"/>
<path d="M407.827 186.319C407.49 193.846 401.116 199.948 393.588 199.948C386.061 199.948 380.232 193.846 380.568 186.319C380.905 178.791 387.279 172.691 394.807 172.691C402.334 172.691 408.163 178.793 407.827 186.319Z" fill="#C64242"/>
<path d="M420.066 217.384C413.567 225.805 403.387 231.28 392.182 231.28C380.976 231.28 371.299 225.805 365.554 217.384C371.948 211.018 382.068 206.882 393.273 206.882C404.491 206.882 414.242 211.018 420.066 217.384Z" fill="#C64242"/>
<path opacity="0.1" d="M407.827 186.319C407.49 193.846 401.116 199.948 393.588 199.948C386.061 199.948 380.232 193.846 380.568 186.319C380.905 178.791 387.279 172.691 394.807 172.691C402.334 172.691 408.163 178.793 407.827 186.319Z" fill="white"/>
<path opacity="0.1" d="M420.066 217.384C413.567 225.805 403.387 231.28 392.182 231.28C380.976 231.28 371.299 225.805 365.554 217.384C371.948 211.018 382.068 206.882 393.273 206.882C404.491 206.882 414.242 211.018 420.066 217.384Z" fill="white"/>
<path d="M226.532 308.157C225.286 310.889 223.975 313.895 222.824 316.827C221.664 319.786 220.506 322.748 219.498 325.753C217.538 331.761 215.7 337.825 214.795 343.906L214.495 345.842C214.472 346.075 214.489 346.406 214.591 346.822C214.783 347.657 215.304 348.775 216.037 349.872C217.518 352.091 219.617 354.338 221.881 356.424C224.139 358.543 226.593 360.57 229.142 362.494C231.666 364.436 234.328 366.337 236.933 368.118L234.481 372.733C228.222 369.997 222.394 366.726 216.748 362.621C213.973 360.506 211.232 358.229 208.804 355.151C207.607 353.599 206.429 351.845 205.659 349.53C205.285 348.375 205.025 347.069 205.023 345.657C205.033 345.332 205.05 344.875 205.072 344.657L205.136 344.003L205.268 342.696C205.984 335.723 207.528 329.021 209.563 322.521C210.589 319.274 211.683 316.061 212.933 312.908C214.208 309.734 215.467 306.688 217.063 303.493L226.532 308.157Z" fill="#E58A7B"/>
<path d="M235.091 367.334L244.385 362.618L241.985 372.833C241.985 372.833 235.603 374.615 232.634 371.519L235.091 367.334Z" fill="#E58A7B"/>
<path d="M252.897 364.295L250.424 372.74L241.983 372.835L244.385 362.618L252.897 364.295Z" fill="#E58A7B"/>
<path d="M266.026 258.907C266.026 258.907 266.832 261.872 268.111 264.107C267.012 265.133 266.026 264.777 266.026 264.777V258.907Z" fill="#DF5753"/>
<path d="M265.751 258.985C266.295 258.985 266.736 258.31 266.736 257.478C266.736 256.645 266.295 255.97 265.751 255.97C265.207 255.97 264.765 256.645 264.765 257.478C264.765 258.31 265.207 258.985 265.751 258.985Z" fill="#263238"/>
<path d="M265.51 256.016L267.509 255.44C267.509 255.44 266.483 257.003 265.51 256.016Z" fill="#263238"/>
<path d="M240.33 268.556C241.531 274.679 242.729 285.899 238.444 289.984C238.444 289.984 240.118 296.195 251.496 296.195C264.008 296.195 257.476 289.984 257.476 289.984C250.648 288.353 250.824 283.288 252.013 278.53L240.33 268.556Z" fill="#E58A7B"/>
<path d="M237.01 254.621C237.638 264.844 237.685 269.183 242.849 274.43C250.615 282.322 263.033 279.315 265.473 269.112C267.669 259.927 266.273 244.753 256.267 240.684C246.407 236.677 236.381 244.398 237.01 254.621Z" fill="#E58A7B"/>
<path d="M238.018 243.053C232.892 244.923 226.053 243.532 228.737 259.355C231.578 276.108 227.204 281.62 227.204 281.62C227.204 281.62 246.661 285.764 266.523 281.372C266.523 281.372 260.459 270.768 262.161 263.03C264.331 253.161 262.611 249.513 262.611 249.513C262.611 249.513 245.226 240.425 238.018 243.053Z" fill="#263238"/>
<path d="M259.722 259.948C259.701 261.973 260.412 264.014 261.332 265.43C262.717 267.562 264.362 266.694 264.773 264.481C265.144 262.489 264.869 258.98 263.095 257.618C261.348 256.279 259.747 257.633 259.722 259.948Z" fill="#E58A7B"/>
<path d="M233.565 244.844C232.085 240.707 239.115 234.344 253.976 236.991C268.837 239.637 269.489 251.996 269.489 251.996L266.482 248.428L266.618 252.186L251.345 255.12L233.565 244.844Z" fill="#263238"/>
<path d="M234.825 290.68C234.62 289.416 235.47 288.225 236.733 288.018C241.36 287.253 251.878 285.707 257.172 286.439C261.105 286.984 262.145 289.28 262.311 291.159C262.435 292.552 261.282 293.726 259.886 293.663L237.013 292.629C235.914 292.579 235 291.766 234.825 290.68Z" fill="#C64242"/>
<path opacity="0.6" d="M234.825 290.68C234.62 289.416 235.47 288.225 236.733 288.018C241.36 287.253 251.878 285.707 257.172 286.439C261.105 286.984 262.145 289.28 262.311 291.159C262.435 292.552 261.282 293.726 259.886 293.663L237.013 292.629C235.914 292.579 235 291.766 234.825 290.68Z" fill="black"/>
<path d="M248.042 520.481L256.519 526.366L270.715 507.127L262.237 501.242L248.042 520.481Z" fill="#E58A7B"/>
<path d="M228.252 520.091L237.221 525.199L249.783 504.852L240.817 499.745L228.252 520.091Z" fill="#E58A7B"/>
<path d="M270.708 507.131L263.393 517.049L254.913 511.161L262.228 501.244L270.708 507.131Z" fill="#CF6F64"/>
<path d="M240.812 499.749L249.782 504.858L243.302 515.344L234.331 510.235L240.812 499.749Z" fill="#CF6F64"/>
<path d="M255.195 354.911C255.195 354.911 288.316 396.654 282.102 436.571C277.082 468.813 248.017 512.472 248.017 512.472L234.35 505.679C234.35 505.679 249.199 476.665 258.95 445.908C263.04 433.009 261.297 418.8 253.652 407.635C236.875 383.13 209.995 397.71 228.076 354.913L255.195 354.911Z" fill="#C64242"/>
<path opacity="0.6" d="M255.195 354.911C255.195 354.911 288.316 396.654 282.102 436.571C277.082 468.813 248.017 512.472 248.017 512.472L234.35 505.679C234.35 505.679 249.199 476.665 258.95 445.908C263.04 433.009 261.297 418.8 253.652 407.635C236.875 383.13 209.995 397.71 228.076 354.913L255.195 354.911Z" fill="black"/>
<path opacity="0.4" d="M271.441 381.734L266.629 376.949C266.629 377.328 275.957 434.896 278.578 451.075C280.159 446.114 281.376 441.221 282.106 436.571C285.147 417.027 278.753 397.036 271.441 381.734Z" fill="black"/>
<path d="M269.988 354.911C269.988 354.911 309.868 407.368 310.99 438.825C311.93 465.182 267.55 516.095 267.55 516.095L254.666 507.76C254.666 507.76 280.617 471.565 287.15 441.978C284.659 412.691 231.192 354.91 231.192 354.91H269.988V354.911Z" fill="#C64242"/>
<path opacity="0.6" d="M269.988 354.911C269.988 354.911 309.868 407.368 310.99 438.825C311.93 465.182 267.55 516.095 267.55 516.095L254.666 507.76C254.666 507.76 280.617 471.565 287.15 441.978C284.659 412.691 231.192 354.91 231.192 354.91H269.988V354.911Z" fill="black"/>
<path d="M220.647 292.329C216.376 293.337 212.295 308.841 212.295 308.841L228.951 319.96C228.951 319.96 234.502 307.706 232.564 302.338C230.545 296.748 226.04 291.057 220.647 292.329Z" fill="#C64242"/>
<path opacity="0.2" d="M223.906 302.305L222.742 315.812L228.943 319.962C228.943 319.962 231.849 313.542 232.714 307.947L223.906 302.305Z" fill="black"/>
<path d="M274.919 292.628C274.919 292.628 279.834 294.359 269.987 354.911C253.356 354.911 236.168 354.911 228.076 354.911C228.78 337.854 228.8 327.335 220.647 292.329C220.647 292.329 229.428 290.419 238.444 289.984C245.497 289.645 251.275 289.419 257.476 289.985C265.649 290.731 274.919 292.628 274.919 292.628Z" fill="#C64242"/>
<path d="M279.175 302.243C280.125 304.867 281.13 307.706 282.176 310.431C283.179 313.197 284.221 315.958 285.296 318.707L288.521 326.969L289.336 329.034L289.745 330.067L289.951 330.583C289.986 330.675 289.98 330.667 289.966 330.657C289.91 330.632 289.861 330.372 289.046 329.837C288.646 329.588 287.975 329.349 287.328 329.336C286.677 329.312 286.161 329.471 285.865 329.6C285.272 329.883 285.263 330.005 285.276 329.985C285.314 329.966 285.436 329.849 285.571 329.687C286.145 328.996 286.84 327.806 287.449 326.622C288.071 325.416 288.659 324.127 289.244 322.819C290.408 320.198 291.467 317.462 292.545 314.722C293.61 311.974 294.614 309.186 295.608 306.389L298.602 297.995L303.67 299.272C302.668 305.276 301.371 311.157 299.825 317.059C299.07 320.016 298.197 322.948 297.198 325.908C296.701 327.39 296.145 328.869 295.505 330.376C294.841 331.895 294.182 333.393 293.006 335.134C292.697 335.574 292.347 336.04 291.859 336.553C291.344 337.058 290.748 337.668 289.463 338.246C288.823 338.521 287.934 338.764 286.908 338.723C285.886 338.694 284.85 338.331 284.133 337.887C282.675 336.955 282.172 336.069 281.74 335.403C281.54 335.069 281.369 334.725 281.251 334.476L281.001 333.966L280.501 332.945L279.507 330.902C278.207 328.165 276.934 325.413 275.728 322.631C274.533 319.843 273.369 317.038 272.241 314.213C271.161 311.344 270.093 308.565 269.142 305.513L279.175 302.243Z" fill="#E58A7B"/>
<path d="M274.919 292.628C279.957 293.827 285.617 308.712 285.617 308.712L270.645 321.47C270.645 321.47 260.942 305.24 262.906 299.881C264.95 294.3 268.338 291.06 274.919 292.628Z" fill="#C64242"/>
<path d="M300.941 293.354L306.195 288.959L309.851 294.654L307.158 299.409C307.158 299.409 302.87 303.334 299.074 301.337C297.848 298.558 298.61 295.303 300.941 293.354Z" fill="#E58A7B"/>
<path d="M315.733 288.973L315.34 290.405L307.015 291.803L306.194 288.959L315.733 288.973Z" fill="#E58A7B"/>
<path d="M268.617 516.786L253.597 507.071L256.287 502.393L273.167 512.77L268.617 516.786Z" fill="#C64242"/>
<path d="M243.074 524.511C241.88 524.511 240.308 523.753 239.355 523.225C239.27 523.177 239.221 523.084 239.232 522.985C239.241 522.889 239.308 522.808 239.4 522.776C239.805 522.648 243.369 521.557 244.378 522.404C244.537 522.538 244.714 522.785 244.658 523.197C244.584 523.743 244.334 524.128 243.916 524.336C243.674 524.457 243.387 524.511 243.074 524.511ZM240.116 523.076C241.749 523.907 243.065 524.214 243.697 523.899C243.967 523.765 244.122 523.514 244.175 523.131C244.203 522.925 244.13 522.834 244.063 522.779C243.533 522.333 241.557 522.68 240.116 523.076Z" fill="#263238"/>
<path d="M239.475 523.253C239.409 523.253 239.346 523.227 239.3 523.18C239.24 523.117 239.217 523.027 239.241 522.943C239.275 522.822 240.096 519.965 241.447 519.314C241.807 519.142 242.173 519.132 242.531 519.281C243.099 519.521 243.155 519.936 243.136 520.161C243.044 521.344 240.633 522.977 239.533 523.246C239.515 523.251 239.495 523.253 239.475 523.253ZM242.024 519.667C241.903 519.667 241.781 519.697 241.657 519.756C240.852 520.144 240.176 521.686 239.853 522.623C241.01 522.137 242.59 520.845 242.646 520.124C242.656 520.007 242.629 519.855 242.339 519.734C242.235 519.689 242.129 519.667 242.024 519.667Z" fill="#263238"/>
<path d="M261.864 530.195C260.383 530.195 258.318 528.291 257.188 527.122C257.115 527.047 257.098 526.935 257.144 526.842C257.192 526.75 257.31 526.697 257.394 526.709C257.915 526.776 262.49 527.394 263.136 528.686C263.259 528.936 263.249 529.202 263.106 529.455C262.864 529.882 262.512 530.126 262.064 530.183C261.999 530.191 261.932 530.195 261.864 530.195ZM258.053 527.298C259.716 528.914 261.168 529.808 262.003 529.696C262.295 529.659 262.516 529.503 262.681 529.213C262.744 529.103 262.749 529.006 262.698 528.904C262.347 528.202 259.904 527.596 258.053 527.298Z" fill="#263238"/>
<path d="M258.198 527.257C257.86 527.257 257.557 527.236 257.319 527.192C257.235 527.176 257.164 527.117 257.134 527.036C257.105 526.955 257.119 526.863 257.175 526.796C257.25 526.705 259.029 524.56 260.71 524.412C261.237 524.372 261.682 524.511 262.064 524.837C262.581 525.28 262.545 525.675 262.424 525.928C262.007 526.804 259.734 527.257 258.198 527.257ZM257.859 526.764C259.328 526.846 261.677 526.358 261.984 525.717C262.01 525.663 262.088 525.5 261.747 525.209C261.463 524.966 261.134 524.865 260.754 524.899C259.65 524.996 258.418 526.167 257.859 526.764Z" fill="#263238"/>
<path d="M239.836 521.87L228.679 518.716C228.272 518.601 227.863 518.789 227.695 519.169L223.929 527.636C223.538 528.515 224.08 529.604 225.022 529.853C228.93 530.885 230.869 531.187 235.775 532.574C238.794 533.428 243.115 534.988 247.283 536.165C251.359 537.317 252.838 533.285 251.208 532.42C243.899 528.547 243.323 525.891 241.323 522.948C240.963 522.418 240.43 522.038 239.836 521.87Z" fill="#C64242"/>
<path d="M257.492 525.586L247.968 518.973C247.621 518.733 247.174 518.779 246.89 519.083L240.573 525.865C239.918 526.568 240.078 527.774 240.887 528.315C244.246 530.563 245.982 531.478 250.17 534.387C252.747 536.176 257.89 540.143 261.448 542.613C264.929 545.029 267.638 541.696 266.378 540.349C260.727 534.309 259.48 530.524 258.548 527.089C258.378 526.471 257.998 525.937 257.492 525.586Z" fill="#C64242"/>
<path d="M249.772 513.344L232.597 504.808L234.375 500.161L252.706 509.146L249.772 513.344Z" fill="#C64242"/>
<path d="M227.449 352.452L225.995 356.203C225.848 356.494 226.193 356.791 226.678 356.791H270.194C270.571 356.791 270.885 356.606 270.908 356.369L271.286 352.617C271.312 352.357 270.985 352.137 270.571 352.137H228.13C227.82 352.137 227.544 352.265 227.449 352.452Z" fill="#C64242"/>
<path opacity="0.4" d="M227.449 352.452L225.995 356.203C225.848 356.494 226.193 356.791 226.678 356.791H270.194C270.571 356.791 270.885 356.606 270.908 356.369L271.286 352.617C271.312 352.357 270.985 352.137 270.571 352.137H228.13C227.82 352.137 227.544 352.265 227.449 352.452Z" fill="white"/>
<path d="M234.293 357.197H233.156C232.93 357.197 232.757 357.08 232.773 356.938L233.306 352.065C233.322 351.923 233.519 351.806 233.747 351.806H234.883C235.109 351.806 235.282 351.923 235.266 352.065L234.733 356.938C234.717 357.082 234.519 357.197 234.293 357.197Z" fill="#C64242"/>
<path d="M261.135 357.197H259.998C259.772 357.197 259.6 357.08 259.616 356.938L260.148 352.065C260.164 351.923 260.361 351.806 260.589 351.806H261.726C261.952 351.806 262.124 351.923 262.108 352.065L261.576 356.938C261.56 357.082 261.361 357.197 261.135 357.197Z" fill="#C64242"/>
<path d="M233.291 579.968C252.754 579.968 268.531 578.823 268.531 577.411C268.531 575.999 252.754 574.854 233.291 574.854C213.829 574.854 198.052 575.999 198.052 577.411C198.052 578.823 213.829 579.968 233.291 579.968Z" fill="#F5F5F5"/>
<path d="M254.767 573.803C248.533 571.993 241.67 569.661 237.424 567.181C237.306 567.113 237.181 567.063 237.061 567V538.813H249.602C251.676 538.813 253.357 537.132 253.357 535.058C253.357 532.985 251.676 531.303 249.602 531.303H237.061V402.631H229.552V531.303H217.011C214.938 531.303 213.257 532.985 213.257 535.058C213.257 537.132 214.938 538.813 217.011 538.813H229.552V566.998C229.432 567.061 229.307 567.11 229.189 567.18C224.943 569.659 218.081 571.991 211.846 573.801C209.801 574.395 210.232 577.408 212.362 577.408H233.306H254.25C256.381 577.409 256.813 574.396 254.767 573.803Z" fill="#E0E0E0"/>
<path d="M256.697 417.074H209.916C206.169 417.074 203.103 414.008 203.103 410.26V396.353C203.103 392.606 206.169 389.539 209.916 389.539H256.697C260.444 389.539 263.51 392.606 263.51 396.353V410.26C263.51 414.008 260.444 417.074 256.697 417.074Z" fill="#C64242"/>
<path d="M209.486 417.074V419.468C209.486 421.441 211.634 423.056 214.258 423.056H252.355C254.979 423.056 257.127 421.442 257.127 419.468V417.074H209.486Z" fill="#C64242"/>
<path opacity="0.3" d="M209.486 417.074V419.468C209.486 421.441 211.634 423.056 214.258 423.056H252.355C254.979 423.056 257.127 421.442 257.127 419.468V417.074H209.486Z" fill="white"/>
<path d="M1277 529.299H623V529.626H1277V529.299Z" fill="#EBEBEB"/>
<path d="M748.113 540.404H691.616V540.731H748.113V540.404Z" fill="#EBEBEB"/>
<path d="M933.014 470.965H680.441C676.325 470.965 672.975 467.615 672.975 463.499V108.466C672.975 104.35 676.325 101 680.441 101H933.014C937.129 101 940.479 104.35 940.479 108.466V463.499C940.479 467.615 937.129 470.965 933.014 470.965ZM680.441 101.328C676.504 101.328 673.302 104.53 673.302 108.467V463.5C673.302 467.438 676.504 470.64 680.441 470.64H933.014C936.95 470.64 940.152 467.438 940.152 463.5V108.466C940.152 104.53 936.95 101.327 933.014 101.327L680.441 101.328Z" fill="#EBEBEB"/>
<path d="M950 588.373C1090.06 588.373 1203.61 581.742 1203.61 573.562C1203.61 565.382 1090.06 558.752 950 558.752C809.937 558.752 696.393 565.382 696.393 573.562C696.393 581.742 809.937 588.373 950 588.373Z" fill="#F5F5F5"/>
</g>
</svg>
