<svg width="715" height="693" viewBox="0 0 715 693" fill="none" xmlns="http://www.w3.org/2000/svg">
<mask id="mask0_111_4151" style="mask-type:alpha" maskUnits="userSpaceOnUse" x="0" y="0" width="715" height="693">
<rect width="715" height="693" rx="24" fill="#868686"/>
</mask>
<g mask="url(#mask0_111_4151)">
<path d="M90.679 531.709H-567V532.038H90.679V531.709Z" fill="#E6E6E6"/>
<path d="M29.3083 556.451H-93.9092V556.78H29.3083V556.451Z" fill="#E6E6E6"/>
<path d="M29.2647 473.046H-224.728C-228.866 473.046 -232.235 469.678 -232.235 465.538V108.508C-232.235 104.369 -228.866 101 -224.728 101H29.2647C33.4055 101 36.7728 104.369 36.7728 108.508V465.538C36.7741 469.678 33.4055 473.046 29.2647 473.046ZM-224.728 101.33C-228.686 101.33 -231.906 104.55 -231.906 108.509V465.54C-231.906 469.499 -228.686 472.719 -224.728 472.719H29.2647C33.2239 472.719 36.4439 469.499 36.4439 465.54V108.508C36.4439 104.55 33.2239 101.329 29.2647 101.329L-224.728 101.33Z" fill="#E6E6E6"/>
<path d="M-8.49113 389.166C-15.3836 394.792 -24.8963 405.094 -33.6132 419.588C-39.4191 429.24 -42.918 439.353 -44.4543 452.715C-44.4214 437.59 -44.3741 421.338 -44.3215 406.001C-42.5707 402.054 -38.572 392.958 -35.7032 385.771C-26.1314 361.791 -22.5667 355.894 -13.9577 335.21C-2.47597 307.622 9.28988 274.886 5.92124 277.503C-0.943611 282.832 -27.2521 332.095 -30.0959 339.147C-39.8769 363.402 -42.601 381.082 -44.2939 398.143C-44.2412 383.737 -44.1847 370.51 -44.1294 360.304C-43.9532 327.015 -43.3863 316.271 -43.11 312.958C-42.0459 311.274 -40.7884 309.312 -40.0571 308.254C-33.8775 299.319 -31.4941 291.707 -25.671 278.38C-17.4198 259.495 -10.3142 225.967 -12.3912 227.658C-21.041 234.7 -27.8637 249.838 -36.8292 269.128C-45.7933 288.417 -43.2311 299.51 -45.0094 315.985C-45.383 319.218 -45.6684 331.418 -45.8749 348.327C-48.2005 330.313 -52.5622 318.442 -60.5201 307.655C-70.309 294.387 -79.7783 285.424 -86.726 280.742C-93.6737 276.062 -74.7286 308.654 -65.6684 322.88C-57.6 335.548 -50.1682 346.727 -45.9775 357.737C-46.1998 380.653 -46.3024 409.672 -46.3024 436.685C-48.3807 424.391 -51.7743 411.155 -56.3018 400.904C-61.7421 388.589 -70.1117 369.699 -76.774 363.292C-78.3748 361.753 -69.8078 398.491 -64.311 408.26C-58.8128 418.029 -54.7772 427.235 -51.3165 432.773C-50.5089 434.064 -47.8309 439.047 -46.3011 441.912C-46.2866 474.888 -46.1183 503.986 -45.8315 513.891H-44.407C-44.5043 511.335 -44.5201 494.56 -44.4898 472.358C-41.0594 460.303 -33.2133 446.547 -26.7391 433.997C-19.6717 420.297 -1.59734 383.539 -8.49113 389.166Z" fill="#E0E0E0"/>
<path d="M-212.161 591.114C-71.3096 591.114 42.8728 584.446 42.8728 576.22C42.8728 567.995 -71.3096 561.327 -212.161 561.327C-353.012 561.327 -467.194 567.995 -467.194 576.22C-467.194 584.446 -353.012 591.114 -212.161 591.114Z" fill="#F5F5F5"/>
<path d="M708.68 544.927H-0.679688V545.281H708.68V544.927Z" fill="#EBEBEB"/>
<path d="M637.603 567.762H590.613V568.117H637.603V567.762Z" fill="#EBEBEB"/>
<path d="M469.228 571.612H456.895V571.967H469.228V571.612Z" fill="#EBEBEB"/>
<path d="M589.192 554.588H561.964V554.943H589.192V554.588Z" fill="#EBEBEB"/>
<path d="M135.024 556.971H73.7449V557.326H135.024V556.971Z" fill="#EBEBEB"/>
<path d="M156.641 556.971H147.656V557.326H156.641V556.971Z" fill="#EBEBEB"/>
<path d="M318.74 562.963H185.841V563.317H318.74V562.963Z" fill="#EBEBEB"/>
<path d="M335.577 481.654H61.6234C57.1587 481.654 53.5254 478.021 53.5254 473.556V88.4706C53.5254 84.0059 57.1587 80.3726 61.6234 80.3726H335.577C340.04 80.3726 343.673 84.0059 343.673 88.4706V473.556C343.673 478.021 340.04 481.654 335.577 481.654ZM61.6234 80.7287C57.3531 80.7287 53.8801 84.2017 53.8801 88.472V473.558C53.8801 477.828 57.3531 481.301 61.6234 481.301H335.577C339.846 481.301 343.319 477.828 343.319 473.558V88.4706C343.319 84.2017 339.846 80.7272 335.577 80.7272L61.6234 80.7287Z" fill="#EBEBEB"/>
<path d="M642.44 481.654H368.488C364.023 481.654 360.391 478.021 360.391 473.556V88.4706C360.391 84.0059 364.025 80.3726 368.488 80.3726H642.44C646.906 80.3726 650.538 84.0059 650.538 88.4706V473.556C650.539 478.021 646.906 481.654 642.44 481.654ZM368.488 80.7287C364.219 80.7287 360.746 84.2017 360.746 88.472V473.558C360.746 477.828 364.219 481.301 368.488 481.301H642.44C646.71 481.301 650.183 477.828 650.183 473.558V88.4706C650.183 84.2017 646.71 80.7272 642.44 80.7272L368.488 80.7287Z" fill="#EBEBEB"/>
<path d="M343.133 249.094H141.696V544.427H343.133V249.094Z" fill="#F0F0F0"/>
<path d="M336.012 258.391H148.817V312.936H336.012V258.391Z" fill="#E0E0E0"/>
<path d="M159.45 267.221H148.817V312.936H159.45V267.221Z" fill="#EBEBEB"/>
<path d="M210.87 267.221H200.235V312.936H210.87V267.221Z" fill="#EBEBEB"/>
<path d="M269.239 266.1L258.759 267.906L266.521 312.958L277.002 311.152L269.239 266.1Z" fill="#EBEBEB"/>
<path d="M172.625 273.245H161.992V312.935H172.625V273.245Z" fill="#EBEBEB"/>
<path d="M197.069 273.245H186.435V312.935H197.069V273.245Z" fill="#EBEBEB"/>
<path d="M258.763 273.245H248.13V312.935H258.763V273.245Z" fill="#EBEBEB"/>
<path d="M224.836 271.889L214.454 274.195L223.063 312.941L233.445 310.634L224.836 271.889Z" fill="#EBEBEB"/>
<path d="M181.823 264.951H176.506V312.935H181.823V264.951Z" fill="#EBEBEB"/>
<path d="M245.074 264.951H239.756V312.935H245.074V264.951Z" fill="#EBEBEB"/>
<path d="M148.817 376.117H336.013V321.572H148.817V376.117Z" fill="#E0E0E0"/>
<path d="M325.379 376.118H336.013V330.404H325.379V376.118Z" fill="#EBEBEB"/>
<path d="M273.959 376.118H284.594V330.404H273.959V376.118Z" fill="#EBEBEB"/>
<path d="M207.804 374.31L218.283 376.116L226.046 331.063L215.567 329.258L207.804 374.31Z" fill="#EBEBEB"/>
<path d="M312.202 376.117H322.837V336.427H312.202V376.117Z" fill="#EBEBEB"/>
<path d="M287.759 376.117H298.394V336.427H287.759V376.117Z" fill="#EBEBEB"/>
<path d="M226.064 376.117H236.699V336.427H226.064V376.117Z" fill="#EBEBEB"/>
<path d="M251.385 373.807L261.766 376.114L270.374 337.368L259.994 335.062L251.385 373.807Z" fill="#EBEBEB"/>
<path d="M303.007 376.117H308.324V328.133H303.007V376.117Z" fill="#EBEBEB"/>
<path d="M239.755 376.117H245.073V328.133H239.755V376.117Z" fill="#EBEBEB"/>
<path d="M159.45 330.402H148.817V376.116H159.45V330.402Z" fill="#EBEBEB"/>
<path d="M172.625 336.427H161.992V376.117H172.625V336.427Z" fill="#EBEBEB"/>
<path d="M197.069 336.427H186.435V376.117H197.069V336.427Z" fill="#EBEBEB"/>
<path d="M181.823 328.134H176.506V376.117H181.823V328.134Z" fill="#EBEBEB"/>
<path d="M336.012 384.754H148.817V439.3H336.012V384.754Z" fill="#E0E0E0"/>
<path d="M266.895 393.584H256.26V439.3H266.895V393.584Z" fill="#EBEBEB"/>
<path d="M325.26 392.468L314.78 394.274L322.542 439.327L333.023 437.521L325.26 392.468Z" fill="#EBEBEB"/>
<path d="M228.652 399.608H218.017V439.298H228.652V399.608Z" fill="#EBEBEB"/>
<path d="M253.094 399.608H242.46V439.298H253.094V399.608Z" fill="#EBEBEB"/>
<path d="M314.79 399.608H304.155V439.298H314.79V399.608Z" fill="#EBEBEB"/>
<path d="M280.862 398.251L270.482 400.557L279.091 439.303L289.471 436.996L280.862 398.251Z" fill="#EBEBEB"/>
<path d="M237.848 391.315H232.531V439.299H237.848V391.315Z" fill="#EBEBEB"/>
<path d="M301.099 391.315H295.782V439.299H301.099V391.315Z" fill="#EBEBEB"/>
<path d="M202.915 392.463L192.435 394.269L200.197 439.322L210.678 437.516L202.915 392.463Z" fill="#EBEBEB"/>
<path d="M192.449 399.608H181.815V439.298H192.449V399.608Z" fill="#EBEBEB"/>
<path d="M158.519 398.251L148.139 400.557L156.748 439.302L167.128 436.996L158.519 398.251Z" fill="#EBEBEB"/>
<path d="M178.757 391.315H173.44V439.299H178.757V391.315Z" fill="#EBEBEB"/>
<path d="M106.945 545.202H141.696L141.696 249.094H106.945L106.945 545.202Z" fill="#E0E0E0"/>
<path d="M461.024 537.473H431.498L447.02 411.055C447.677 405.704 452.547 401.365 457.899 401.365H468.045H586.731L567.845 537.473H461.024Z" fill="#F5F5F5"/>
<path d="M554.668 537.473H584.194L599.716 411.055C600.373 405.704 596.568 401.365 591.217 401.365H581.07C575.719 401.365 570.848 405.704 570.191 411.055L554.668 537.473Z" fill="#F0F0F0"/>
<path d="M543.791 537.324L549.141 476.178C549.379 473.447 551.49 471.253 554.21 470.905L556.41 470.624C560.058 470.159 562.888 467.213 563.209 463.55L564.185 452.402C564.585 447.832 560.983 443.902 556.396 443.902H605.74C610.327 443.902 613.929 447.832 613.529 452.402L612.553 463.55C612.232 467.213 609.402 470.159 605.755 470.624L603.554 470.905C600.834 471.253 598.725 473.447 598.486 476.178L593.136 537.324C592.746 541.781 589.014 545.202 584.539 545.202H535.195C539.668 545.202 543.4 541.781 543.791 537.324Z" fill="#E6E6E6"/>
<path d="M407.998 460.87C407.158 451.268 399.118 443.901 389.479 443.901H413.355H432.437C442.075 443.901 450.115 451.268 450.955 460.87L455.196 509.341H412.237L407.998 460.87Z" fill="#E6E6E6"/>
<path d="M370.396 443.901H389.478C399.117 443.901 407.156 451.268 407.996 460.87L412.237 509.34H514.551L518.791 460.869C519.631 451.267 527.671 443.9 537.31 443.9H556.392C560.978 443.9 564.58 447.83 564.18 452.399L563.204 463.547C562.884 467.211 560.053 470.156 556.406 470.621L554.205 470.902C551.486 471.25 549.376 473.444 549.136 476.176L543.786 537.321C543.396 541.778 539.663 545.199 535.189 545.199H391.597C387.123 545.199 383.39 541.778 383 537.321L377.65 476.176C377.412 473.444 375.301 471.25 372.582 470.902L370.382 470.621C366.734 470.156 363.904 467.211 363.583 463.547L362.607 452.399C362.207 447.832 365.809 443.901 370.396 443.901Z" fill="#F0F0F0"/>
<path d="M144.255 234.339C144.255 234.339 142.683 223.978 150.241 217.334C157.797 210.69 157.133 206.739 154.974 206.224C152.815 205.709 150.821 212.352 147.5 214.179C147.5 214.179 147.395 204.712 150.769 201.225C154.142 197.738 155.913 188.753 152.702 188.594C149.492 188.436 149.16 193.931 148.496 197.827C147.832 201.723 144.254 207.203 144.254 207.203C144.254 207.203 143.556 198.732 141.375 195.245C139.195 191.758 145.009 183.784 142.766 180.297C140.524 176.81 136.538 183.453 136.87 190.926C137.202 198.4 142.184 206.372 141.022 214.178C141.022 214.178 138.825 208.697 136.851 208.199C134.878 207.701 132.884 204.076 131.556 202.733C130.227 201.389 128.567 206.04 131.556 210.359C134.546 214.677 142.185 226.23 141.024 235.566L144.255 234.339Z" fill="#E6E6E6"/>
<path d="M148.773 229.626L151.247 245.155C152.011 249.951 148.306 254.293 143.449 254.293H140.809C135.953 254.293 132.247 249.951 133.012 245.155L135.486 229.626H148.773Z" fill="#E6E6E6"/>
<path d="M297.33 251.245H305.037V218.116H297.33V251.245Z" fill="#EBEBEB"/>
<path d="M260.068 251.245H267.775V218.116H260.068V251.245Z" fill="#EBEBEB"/>
<path d="M212.123 249.94L219.717 251.249L225.343 218.601L217.748 217.292L212.123 249.94Z" fill="#EBEBEB"/>
<path d="M287.782 251.245H295.489V222.482H287.782V251.245Z" fill="#EBEBEB"/>
<path d="M270.068 251.245H277.775V222.482H270.068V251.245Z" fill="#EBEBEB"/>
<path d="M225.359 251.245H233.065V222.482H225.359V251.245Z" fill="#EBEBEB"/>
<path d="M243.703 249.573L251.226 251.245L257.465 223.166L249.942 221.494L243.703 249.573Z" fill="#EBEBEB"/>
<path d="M281.119 251.244H284.972V216.47H281.119V251.244Z" fill="#EBEBEB"/>
<path d="M235.281 251.244H239.134V216.47H235.281V251.244Z" fill="#EBEBEB"/>
<path d="M207.795 224.95H170.246V250.873H207.795V224.95Z" fill="#EBEBEB"/>
<path d="M336.594 235.568H305.137V254.922H336.594V235.568Z" fill="#EBEBEB"/>
<path d="M329.239 218.556H313.51V237.909H329.239V218.556Z" fill="#EBEBEB"/>
<path d="M592.079 192.949H554.668V348.845H592.079V192.949Z" fill="#E0E0E0"/>
<path d="M448.154 349.256H588.064V192.948L448.154 192.948V349.256Z" fill="#E0E0E0"/>
<path d="M443.643 349.256H588.806V192.948L443.643 192.948V349.256Z" fill="#F0F0F0"/>
<path d="M449.842 342.074H582.838V197.934L449.842 197.934V342.074Z" fill="white"/>
<path d="M449.842 342.074H452.309V197.934H449.842V342.074Z" fill="#E0E0E0"/>
<path d="M451.895 301.587V305.474H583.184V301.587H451.895Z" fill="#E0E0E0"/>
<path d="M449.841 301.587H584.923V295.061H449.841V301.587Z" fill="#F0F0F0"/>
<path d="M354 609C505.919 609 629.074 601.808 629.074 592.936C629.074 584.064 505.919 576.872 354 576.872C202.081 576.872 78.926 584.064 78.926 592.936C78.926 601.808 202.081 609 354 609Z" fill="#F5F5F5"/>
<path d="M456.084 538.868H202.247C196.515 538.868 191.867 534.222 191.867 528.489V229.605C191.867 223.873 196.514 219.225 202.247 219.225H456.083C461.814 219.225 466.462 223.872 466.462 229.605V528.489C466.463 534.221 461.816 538.868 456.084 538.868Z" fill="#C64242"/>
<path opacity="0.6" d="M456.084 538.868H202.247C196.515 538.868 191.867 534.222 191.867 528.489V229.605C191.867 223.873 196.514 219.225 202.247 219.225H456.083C461.814 219.225 466.462 223.872 466.462 229.605V528.489C466.463 534.221 461.816 538.868 456.084 538.868Z" fill="white"/>
<path d="M421.977 365.812H236.356V397.595H421.977V365.812Z" fill="white"/>
<g opacity="0.4">
<path d="M252.953 384.795V385.628H246.512V376.52H252.758V377.353H247.476V380.593H252.186V381.412H247.476V384.795H252.953Z" fill="#263238"/>
<path d="M254.256 381.7H257.665V382.506H254.256V381.7Z" fill="#263238"/>
<path d="M271.026 381.66V385.628H270.103V381.751C270.103 380.306 269.374 379.566 268.138 379.566C266.733 379.566 265.848 380.477 265.848 382.037V385.628H264.925V381.751C264.925 380.306 264.195 379.566 262.947 379.566C261.555 379.566 260.657 380.477 260.657 382.037V385.628H259.733V378.784H260.619V380.034C261.1 379.214 261.985 378.733 263.13 378.733C264.262 378.733 265.146 379.214 265.563 380.177C266.058 379.294 267.034 378.733 268.27 378.733C269.934 378.733 271.026 379.696 271.026 381.66Z" fill="#263238"/>
<path d="M278.703 381.386V385.628H277.818V384.561C277.402 385.264 276.595 385.694 275.463 385.694C273.915 385.694 272.964 384.886 272.964 383.703C272.964 382.649 273.641 381.765 275.606 381.765H277.778V381.348C277.778 380.178 277.114 379.541 275.84 379.541C274.955 379.541 274.122 379.853 273.563 380.346L273.147 379.657C273.837 379.072 274.851 378.735 275.931 378.735C277.701 378.733 278.703 379.617 278.703 381.386ZM277.779 383.573V382.453H275.633C274.305 382.453 273.877 382.974 273.877 383.676C273.877 384.471 274.514 384.964 275.607 384.964C276.647 384.964 277.415 384.471 277.779 383.573Z" fill="#263238"/>
<path d="M281.007 376.625C281.007 376.274 281.306 375.975 281.684 375.975C282.061 375.975 282.361 376.262 282.361 376.612C282.361 376.989 282.074 377.289 281.684 377.289C281.306 377.287 281.007 376.988 281.007 376.625ZM281.214 378.784H282.138V385.628H281.214V378.784Z" fill="#263238"/>
<path d="M284.714 375.974H285.638V385.628H284.714V375.974Z" fill="#263238"/>
</g>
<path d="M421.977 409.229H236.356V441.012H421.977V409.229Z" fill="white"/>
<g opacity="0.4">
<path d="M253.644 423.108C253.644 425.047 252.24 426.218 249.923 426.218H247.477V429.092H246.514V419.985H249.923C252.24 419.987 253.644 421.157 253.644 423.108ZM252.681 423.108C252.681 421.652 251.719 420.82 249.897 420.82H247.477V425.372H249.897C251.719 425.372 252.681 424.54 252.681 423.108Z" fill="#263238"/>
<path d="M260.631 424.853V429.094H259.746V428.027C259.329 428.729 258.523 429.159 257.391 429.159C255.843 429.159 254.893 428.353 254.893 427.168C254.893 426.116 255.569 425.23 257.534 425.23H259.706V424.813C259.706 423.643 259.042 423.006 257.768 423.006C256.885 423.006 256.052 423.319 255.491 423.812L255.076 423.124C255.765 422.538 256.78 422.2 257.859 422.2C259.628 422.199 260.631 423.084 260.631 424.853ZM259.708 427.038V425.92H257.561C256.233 425.92 255.805 426.439 255.805 427.141C255.805 427.935 256.442 428.43 257.536 428.43C258.576 428.43 259.343 427.935 259.708 427.038Z" fill="#263238"/>
<path d="M262.193 428.313L262.609 427.584C263.155 428.014 264.08 428.352 265.042 428.352C266.343 428.352 266.877 427.908 266.877 427.232C266.877 425.45 262.44 426.855 262.44 424.149C262.44 423.03 263.404 422.197 265.147 422.197C266.031 422.197 266.994 422.444 267.567 422.834L267.165 423.576C266.566 423.16 265.851 422.992 265.149 422.992C263.911 422.992 263.367 423.473 263.367 424.124C263.367 425.971 267.803 424.578 267.803 427.207C267.803 428.391 266.763 429.159 264.98 429.159C263.846 429.159 262.752 428.794 262.193 428.313Z" fill="#263238"/>
<path d="M268.555 428.313L268.972 427.584C269.518 428.014 270.443 428.352 271.405 428.352C272.706 428.352 273.241 427.908 273.241 427.232C273.241 425.45 268.805 426.855 268.805 424.149C268.805 423.03 269.768 422.197 271.512 422.197C272.397 422.197 273.359 422.444 273.932 422.834L273.529 423.576C272.93 423.16 272.215 422.992 271.513 422.992C270.276 422.992 269.731 423.473 269.731 424.124C269.731 425.971 274.167 424.578 274.167 427.207C274.167 428.391 273.127 429.159 271.344 429.159C270.208 429.159 269.114 428.794 268.555 428.313Z" fill="#263238"/>
<path d="M285.781 422.251L283.192 429.093H282.321L280.16 423.487L278.001 429.093H277.13L274.553 422.251H275.437L277.584 428.066L279.783 422.251H280.577L282.762 428.066L284.935 422.251H285.781Z" fill="#263238"/>
<path d="M286.289 425.672C286.289 423.642 287.772 422.199 289.776 422.199C291.781 422.199 293.251 423.643 293.251 425.672C293.251 427.702 291.781 429.159 289.776 429.159C287.773 429.159 286.289 427.702 286.289 425.672ZM292.314 425.672C292.314 424.071 291.235 423.005 289.778 423.005C288.321 423.005 287.228 424.071 287.228 425.672C287.228 427.272 288.322 428.339 289.778 428.339C291.233 428.339 292.314 427.272 292.314 425.672Z" fill="#263238"/>
<path d="M298.585 422.199V423.097C298.507 423.097 298.429 423.084 298.363 423.084C296.932 423.084 296.061 423.995 296.061 425.607V429.094H295.137V422.251H296.023V423.59C296.451 422.678 297.324 422.199 298.585 422.199Z" fill="#263238"/>
<path d="M306.43 419.439V429.094H305.545V427.74C304.986 428.664 304.037 429.159 302.905 429.159C300.953 429.159 299.496 427.74 299.496 425.672C299.496 423.603 300.953 422.199 302.905 422.199C303.997 422.199 304.935 422.667 305.507 423.552V419.441H306.43V419.439ZM305.521 425.672C305.521 424.071 304.429 423.004 302.983 423.004C301.526 423.004 300.433 424.071 300.433 425.672C300.433 427.272 301.526 428.339 302.983 428.339C304.427 428.339 305.521 427.272 305.521 425.672Z" fill="#263238"/>
</g>
<path opacity="0.2" d="M421.977 473.43H236.356V505.214H421.977V473.43Z" fill="black"/>
<g opacity="0.5">
<path d="M281.498 458.823H278.467L277.815 460.275H277.216L279.703 454.835H280.271L282.758 460.275H282.152L281.498 458.823ZM281.289 458.356L279.984 455.433L278.679 458.356H281.289Z" fill="black"/>
<path d="M283.547 454.51H284.098V460.275H283.547V454.51Z" fill="black"/>
<path d="M287.698 456.157V456.693C287.651 456.693 287.604 456.685 287.566 456.685C286.71 456.685 286.19 457.229 286.19 458.194V460.277H285.638V456.188H286.166V456.988C286.424 456.445 286.943 456.157 287.698 456.157Z" fill="black"/>
<path d="M292.215 458.403H288.796C288.858 459.258 289.511 459.826 290.404 459.826C290.902 459.826 291.345 459.647 291.656 459.289L291.966 459.647C291.602 460.082 291.034 460.315 290.389 460.315C289.115 460.315 288.244 459.445 288.244 458.232C288.244 457.021 289.091 456.157 290.241 456.157C291.392 456.157 292.223 457.004 292.223 458.232C292.223 458.278 292.215 458.34 292.215 458.403ZM288.796 457.991H291.694C291.625 457.191 291.041 456.631 290.241 456.631C289.448 456.631 288.865 457.191 288.796 457.991Z" fill="black"/>
<path d="M296.322 457.742V460.275H295.794V459.638C295.546 460.058 295.064 460.315 294.387 460.315C293.462 460.315 292.894 459.833 292.894 459.126C292.894 458.496 293.299 457.969 294.472 457.969H295.77V457.72C295.77 457.021 295.374 456.639 294.612 456.639C294.083 456.639 293.587 456.825 293.252 457.122L293.004 456.709C293.415 456.36 294.022 456.157 294.666 456.157C295.723 456.157 296.322 456.685 296.322 457.742ZM295.77 459.048V458.379H294.488C293.695 458.379 293.438 458.691 293.438 459.111C293.438 459.584 293.819 459.88 294.472 459.88C295.093 459.88 295.552 459.584 295.77 459.048Z" fill="black"/>
<path d="M301.57 454.51V460.275H301.042V459.468C300.707 460.02 300.14 460.315 299.464 460.315C298.3 460.315 297.429 459.468 297.429 458.232C297.429 456.997 298.3 456.157 299.464 456.157C300.117 456.157 300.676 456.436 301.019 456.964V454.51H301.57ZM301.026 458.232C301.026 457.276 300.374 456.639 299.511 456.639C298.64 456.639 297.988 457.276 297.988 458.232C297.988 459.189 298.64 459.826 299.511 459.826C300.374 459.826 301.026 459.189 301.026 458.232Z" fill="black"/>
<path d="M306.548 456.188L304.505 460.766C304.163 461.566 303.728 461.823 303.145 461.823C302.764 461.823 302.398 461.7 302.15 461.45L302.407 461.039C302.608 461.242 302.857 461.349 303.153 461.349C303.518 461.349 303.767 461.179 304 460.666L304.179 460.27L302.352 456.19H302.926L304.465 459.664L306.003 456.19H306.548V456.188Z" fill="black"/>
<path d="M312.451 457.742V460.275H311.922V459.638C311.674 460.058 311.192 460.315 310.515 460.315C309.59 460.315 309.022 459.833 309.022 459.126C309.022 458.496 309.427 457.969 310.6 457.969H311.898V457.72C311.898 457.021 311.502 456.639 310.74 456.639C310.211 456.639 309.715 456.825 309.381 457.122L309.133 456.709C309.544 456.36 310.152 456.157 310.796 456.157C311.853 456.157 312.451 456.685 312.451 457.742ZM311.9 459.048V458.379H310.617C309.824 458.379 309.567 458.691 309.567 459.111C309.567 459.584 309.949 459.88 310.601 459.88C311.223 459.88 311.681 459.584 311.9 459.048Z" fill="black"/>
<path d="M322.737 457.905V460.275H322.185V457.959C322.185 457.098 321.75 456.654 321.012 456.654C320.172 456.654 319.644 457.198 319.644 458.13V460.275H319.092V457.959C319.092 457.098 318.657 456.654 317.911 456.654C317.079 456.654 316.543 457.198 316.543 458.13V460.275H315.991V456.187H316.519V456.933C316.807 456.444 317.335 456.156 318.018 456.156C318.695 456.156 319.223 456.444 319.471 457.018C319.766 456.489 320.349 456.156 321.087 456.156C322.084 456.157 322.737 456.732 322.737 457.905Z" fill="black"/>
<path d="M327.818 458.403H324.399C324.46 459.258 325.114 459.826 326.007 459.826C326.504 459.826 326.948 459.647 327.259 459.289L327.569 459.647C327.205 460.082 326.637 460.315 325.992 460.315C324.718 460.315 323.847 459.445 323.847 458.232C323.847 457.021 324.694 456.157 325.844 456.157C326.995 456.157 327.826 457.004 327.826 458.232C327.825 458.278 327.818 458.34 327.818 458.403ZM324.399 457.991H327.297C327.227 457.191 326.644 456.631 325.844 456.631C325.051 456.631 324.468 457.191 324.399 457.991Z" fill="black"/>
<path d="M335.701 457.905V460.275H335.15V457.959C335.15 457.098 334.714 456.654 333.976 456.654C333.136 456.654 332.609 457.198 332.609 458.13V460.275H332.057V457.959C332.057 457.098 331.621 456.654 330.875 456.654C330.044 456.654 329.507 457.198 329.507 458.13V460.275H328.955V456.187H329.483V456.933C329.771 456.444 330.299 456.156 330.983 456.156C331.659 456.156 332.187 456.444 332.436 457.018C332.731 456.489 333.314 456.156 334.051 456.156C335.049 456.157 335.701 456.732 335.701 457.905Z" fill="black"/>
<path d="M341.349 458.232C341.349 459.468 340.48 460.315 339.313 460.315C338.637 460.315 338.069 460.02 337.736 459.468V460.275H337.208V454.51H337.76V456.964C338.102 456.436 338.662 456.157 339.315 456.157C340.478 456.157 341.349 456.997 341.349 458.232ZM340.797 458.232C340.797 457.276 340.136 456.639 339.274 456.639C338.403 456.639 337.75 457.276 337.75 458.232C337.75 459.189 338.403 459.826 339.274 459.826C340.136 459.826 340.797 459.189 340.797 458.232Z" fill="black"/>
<path d="M346.04 458.403H342.621C342.683 459.258 343.336 459.826 344.229 459.826C344.727 459.826 345.17 459.647 345.481 459.289L345.791 459.647C345.427 460.082 344.859 460.315 344.214 460.315C342.94 460.315 342.069 459.445 342.069 458.232C342.069 457.021 342.916 456.157 344.066 456.157C345.217 456.157 346.048 457.004 346.048 458.232C346.047 458.278 346.04 458.34 346.04 458.403ZM342.621 457.991H345.519C345.449 457.191 344.866 456.631 344.066 456.631C343.273 456.631 342.69 457.191 342.621 457.991Z" fill="black"/>
<path d="M349.236 456.157V456.693C349.189 456.693 349.142 456.685 349.104 456.685C348.25 456.685 347.728 457.229 347.728 458.194V460.277H347.176V456.188H347.705V456.988C347.962 456.445 348.481 456.157 349.236 456.157Z" fill="black"/>
<path d="M352.813 456.228C352.813 455.667 352.354 455.279 351.561 455.279C350.902 455.279 350.419 455.496 350.077 455.909L349.666 455.596C350.086 455.084 350.731 454.789 351.601 454.789C352.689 454.789 353.389 455.31 353.389 456.141C353.389 457.469 351.967 457.532 351.967 458.644H351.391C351.391 457.361 352.813 457.245 352.813 456.228ZM351.275 459.911C351.275 459.687 351.453 459.515 351.679 459.515C351.913 459.515 352.09 459.687 352.09 459.911C352.09 460.128 351.912 460.315 351.679 460.315C351.453 460.315 351.275 460.128 351.275 459.911Z" fill="black"/>
<path d="M356.656 454.836H357.916V459.251H360.643V460.277H356.656V454.836Z" fill="black"/>
<path d="M360.926 458.186C360.926 456.926 361.898 456.032 363.227 456.032C364.557 456.032 365.52 456.926 365.52 458.186C365.52 459.445 364.557 460.339 363.227 460.339C361.897 460.338 360.926 459.445 360.926 458.186ZM364.291 458.186C364.291 457.462 363.833 457.028 363.226 457.028C362.62 457.028 362.153 457.463 362.153 458.186C362.153 458.909 362.62 459.343 363.226 459.343C363.833 459.343 364.291 458.909 364.291 458.186Z" fill="black"/>
<path d="M370.644 456.094V459.576C370.644 461.131 369.806 461.846 368.298 461.846C367.505 461.846 366.736 461.652 366.246 461.271L366.729 460.402C367.086 460.688 367.669 460.875 368.204 460.875C369.06 460.875 369.433 460.487 369.433 459.732V459.553C369.114 459.904 368.655 460.074 368.112 460.074C366.954 460.074 366.021 459.274 366.021 458.054C366.021 456.834 366.953 456.032 368.112 456.032C368.695 456.032 369.177 456.228 369.495 456.631V456.094H370.644ZM369.447 458.054C369.447 457.439 368.989 457.027 368.352 457.027C367.715 457.027 367.248 457.439 367.248 458.054C367.248 458.668 367.715 459.079 368.352 459.079C368.989 459.079 369.447 458.668 369.447 458.054Z" fill="black"/>
<path d="M373.828 454.836C373.828 454.456 374.13 454.159 374.581 454.159C375.033 454.159 375.335 454.439 375.335 454.813C375.335 455.216 375.033 455.511 374.581 455.511C374.132 455.511 373.828 455.216 373.828 454.836ZM373.976 456.095H375.187V460.275H373.976V456.095Z" fill="black"/>
<path d="M380.591 457.882V460.277H379.38V458.069C379.38 457.393 379.069 457.083 378.533 457.083C377.949 457.083 377.531 457.441 377.531 458.21V460.277H376.319V456.096H377.477V456.587C377.803 456.229 378.293 456.034 378.86 456.034C379.845 456.032 380.591 456.608 380.591 457.882Z" fill="black"/>
</g>
<path d="M421.977 471.485H236.356V503.268H421.977V471.485Z" fill="#C64242"/>
<path d="M305.199 492.314L302.852 488.973C302.634 488.989 302.401 489.003 302.168 489.003H299.48V492.314H297.925V481.434H302.168C304.997 481.434 306.707 482.864 306.707 485.227C306.707 486.906 305.837 488.118 304.314 488.663L306.893 492.314H305.199ZM305.152 485.225C305.152 483.67 304.111 482.785 302.122 482.785H299.48V487.681H302.122C304.111 487.682 305.152 486.78 305.152 485.225Z" fill="white"/>
<path d="M316.429 488.693H309.746C309.933 490.138 311.098 491.102 312.731 491.102C313.694 491.102 314.503 490.774 315.109 490.107L315.933 491.07C315.187 491.941 314.052 492.407 312.684 492.407C310.025 492.407 308.253 490.652 308.253 488.195C308.253 485.754 310.01 483.998 312.389 483.998C314.767 483.998 316.461 485.708 316.461 488.241C316.459 488.365 316.444 488.552 316.429 488.693ZM309.744 487.62H315.029C314.875 486.235 313.832 485.258 312.388 485.258C310.957 485.258 309.901 486.221 309.744 487.62Z" fill="white"/>
<path d="M326.414 484.076V491.195C326.414 494.102 324.937 495.423 322.14 495.423C320.632 495.423 319.109 495.003 318.209 494.194L318.924 493.044C319.685 493.696 320.881 494.116 322.094 494.116C324.038 494.116 324.923 493.215 324.923 491.35V490.697C324.208 491.553 323.136 491.971 321.954 491.971C319.576 491.971 317.773 490.354 317.773 487.978C317.773 485.6 319.576 483.998 321.954 483.998C323.183 483.998 324.3 484.448 325 485.35V484.076H326.414ZM324.952 487.978C324.952 486.376 323.77 485.303 322.123 485.303C320.46 485.303 319.278 486.376 319.278 487.978C319.278 489.562 320.46 490.667 322.123 490.667C323.771 490.666 324.952 489.562 324.952 487.978Z" fill="white"/>
<path d="M329.001 481.527C329.001 480.983 329.436 480.548 330.011 480.548C330.585 480.548 331.021 480.968 331.021 481.497C331.021 482.057 330.601 482.491 330.011 482.491C329.436 482.491 329.001 482.071 329.001 481.527ZM329.264 484.076H330.757V492.314H329.264V484.076Z" fill="white"/>
<path d="M332.565 491.443L333.186 490.262C333.885 490.76 335.005 491.117 336.077 491.117C337.461 491.117 338.037 490.697 338.037 489.998C338.037 488.148 332.83 489.749 332.83 486.471C332.83 484.994 334.151 483.999 336.265 483.999C337.337 483.999 338.549 484.279 339.264 484.744L338.627 485.926C337.881 485.444 337.056 485.273 336.249 485.273C334.944 485.273 334.305 485.756 334.305 486.408C334.305 488.351 339.529 486.766 339.529 489.968C339.529 491.46 338.161 492.408 335.969 492.408C334.6 492.407 333.248 491.987 332.565 491.443Z" fill="white"/>
<path d="M346.028 491.832C345.577 492.221 344.893 492.407 344.225 492.407C342.562 492.407 341.615 491.489 341.615 489.828V485.305H340.216V484.077H341.615V482.274H343.107V484.077H345.469V485.305H343.107V489.767C343.107 490.653 343.574 491.151 344.397 491.151C344.832 491.151 345.251 491.011 345.563 490.762L346.028 491.832Z" fill="white"/>
<path d="M354.972 488.693H348.287C348.474 490.138 349.639 491.102 351.272 491.102C352.235 491.102 353.044 490.774 353.65 490.107L354.474 491.07C353.728 491.941 352.593 492.407 351.225 492.407C348.566 492.407 346.796 490.652 346.796 488.195C346.796 485.754 348.552 483.998 350.931 483.998C353.309 483.998 355.003 485.708 355.003 488.241C355.002 488.365 354.986 488.552 354.972 488.693ZM348.287 487.62H353.572C353.417 486.235 352.374 485.258 350.93 485.258C349.5 485.258 348.443 486.221 348.287 487.62Z" fill="white"/>
<path d="M361.505 483.998V485.444C361.382 485.428 361.272 485.428 361.163 485.428C359.563 485.428 358.567 486.407 358.567 488.21V492.315H357.074V484.076H358.504V485.461C359.034 484.496 360.059 483.998 361.505 483.998Z" fill="white"/>
<g opacity="0.6">
<path d="M296.674 254.387L297.304 253.059C298.189 253.859 299.703 254.438 301.235 254.438C303.294 254.438 304.179 253.638 304.179 252.601C304.179 249.691 296.965 251.53 296.965 247.105C296.965 245.267 298.393 243.703 301.524 243.703C302.919 243.703 304.366 244.077 305.353 244.758L304.792 246.12C303.755 245.456 302.58 245.15 301.524 245.15C299.5 245.15 298.633 246.001 298.633 247.038C298.633 249.948 305.847 248.128 305.847 252.5C305.847 254.32 304.385 255.886 301.236 255.886C299.413 255.885 297.627 255.272 296.674 254.387Z" fill="#263238"/>
<path d="M307.808 243.941C307.808 243.345 308.283 242.868 308.913 242.868C309.543 242.868 310.02 243.328 310.02 243.907C310.02 244.52 309.56 244.996 308.913 244.996C308.283 244.995 307.808 244.535 307.808 243.941ZM308.097 246.73H309.73V255.749H308.097V246.73Z" fill="#263238"/>
<path d="M321.473 246.73V254.523C321.473 257.705 319.857 259.152 316.794 259.152C315.143 259.152 313.476 258.693 312.488 257.807L313.271 256.548C314.106 257.263 315.415 257.722 316.743 257.722C318.87 257.722 319.84 256.736 319.84 254.693V253.978C319.058 254.915 317.884 255.374 316.59 255.374C313.986 255.374 312.013 253.604 312.013 251C312.013 248.397 313.986 246.645 316.59 246.645C317.933 246.645 319.159 247.139 319.925 248.125V246.73H321.473ZM319.874 251.002C319.874 249.25 318.582 248.075 316.777 248.075C314.957 248.075 313.663 249.25 313.663 251.002C313.663 252.737 314.957 253.946 316.777 253.946C318.582 253.944 319.874 252.737 319.874 251.002Z" fill="#263238"/>
<path d="M333.152 250.559V255.749H331.519V250.746C331.519 248.976 330.635 248.109 329.086 248.109C327.349 248.109 326.227 249.148 326.227 251.104V255.749H324.594V246.73H326.16V248.092C326.824 247.174 327.981 246.645 329.409 246.645C331.604 246.645 333.152 247.905 333.152 250.559Z" fill="#263238"/>
<path d="M349.172 246.73V255.749H347.624V254.387C346.96 255.323 345.838 255.849 344.561 255.849C342.23 255.849 340.681 254.574 340.681 251.918V246.729H342.314V251.731C342.314 253.501 343.199 254.385 344.747 254.385C346.448 254.385 347.538 253.33 347.538 251.39V246.729L349.172 246.73Z" fill="#263238"/>
<path d="M361.634 251.24C361.634 254.014 359.712 255.851 357.074 255.851C355.799 255.851 354.675 255.357 353.926 254.388V259.05H352.293V246.732H353.859V248.16C354.592 247.156 355.748 246.646 357.076 246.646C359.71 246.645 361.634 248.484 361.634 251.24ZM359.983 251.24C359.983 249.335 358.673 248.075 356.938 248.075C355.22 248.075 353.909 249.335 353.909 251.24C353.909 253.163 355.219 254.422 356.938 254.422C358.673 254.421 359.983 253.163 359.983 251.24Z" fill="#263238"/>
</g>
<path d="M421.977 322.395H236.356V354.178H421.977V322.395Z" fill="white"/>
<g opacity="0.4">
<path d="M246.514 333.104H247.477V341.378H252.577V342.211H246.515V333.104H246.514Z" fill="#263238"/>
<path d="M259.173 337.97V342.211H258.288V341.144C257.872 341.846 257.065 342.276 255.933 342.276C254.385 342.276 253.434 341.47 253.434 340.286C253.434 339.233 254.111 338.348 256.076 338.348H258.248V337.932C258.248 336.762 257.584 336.123 256.31 336.123C255.425 336.123 254.592 336.437 254.033 336.93L253.616 336.241C254.305 335.655 255.32 335.317 256.399 335.317C258.171 335.315 259.173 336.2 259.173 337.97ZM258.249 340.157V339.037H256.103C254.775 339.037 254.347 339.558 254.347 340.26C254.347 341.053 254.984 341.547 256.077 341.547C257.117 341.547 257.885 341.052 258.249 340.157Z" fill="#263238"/>
<path d="M260.735 341.431L261.152 340.702C261.698 341.131 262.623 341.469 263.585 341.469C264.886 341.469 265.421 341.026 265.421 340.35C265.421 338.568 260.985 339.972 260.985 337.267C260.985 336.147 261.948 335.315 263.692 335.315C264.575 335.315 265.539 335.563 266.111 335.952L265.708 336.694C265.109 336.277 264.394 336.108 263.692 336.108C262.454 336.108 261.91 336.589 261.91 337.24C261.91 339.087 266.346 337.695 266.346 340.324C266.346 341.507 265.306 342.275 263.523 342.275C262.388 342.276 261.294 341.912 260.735 341.431Z" fill="#263238"/>
<path d="M271.652 341.795C271.287 342.12 270.741 342.276 270.208 342.276C268.919 342.276 268.204 341.547 268.204 340.286V336.149H266.982V335.369H268.204V333.872H269.128V335.369H271.209V336.149H269.128V340.235C269.128 341.041 269.544 341.483 270.311 341.483C270.689 341.483 271.066 341.367 271.326 341.133L271.652 341.795Z" fill="#263238"/>
<path d="M284.545 333.104V342.211H283.751L277.897 334.821V342.211H276.934V333.104H277.728L283.596 340.494V333.104H284.545Z" fill="#263238"/>
<path d="M292.482 337.97V342.211H291.598V341.144C291.181 341.846 290.375 342.276 289.243 342.276C287.695 342.276 286.744 341.47 286.744 340.286C286.744 339.233 287.421 338.348 289.386 338.348H291.558V337.932C291.558 336.762 290.894 336.123 289.62 336.123C288.735 336.123 287.903 336.437 287.343 336.93L286.927 336.241C287.617 335.655 288.631 335.317 289.711 335.317C291.48 335.315 292.482 336.2 292.482 337.97ZM291.558 340.157V339.037H289.411C288.083 339.037 287.655 339.558 287.655 340.26C287.655 341.053 288.292 341.547 289.386 341.547C290.426 341.547 291.193 341.052 291.558 340.157Z" fill="#263238"/>
<path d="M306.286 338.243V342.211H305.362V338.335C305.362 336.889 304.633 336.149 303.397 336.149C301.993 336.149 301.107 337.061 301.107 338.62V342.211H300.184V338.335C300.184 336.889 299.455 336.149 298.206 336.149C296.814 336.149 295.916 337.061 295.916 338.62V342.211H294.993V335.369H295.877V336.617C296.358 335.798 297.243 335.316 298.388 335.316C299.52 335.316 300.404 335.798 300.821 336.762C301.316 335.876 302.292 335.316 303.528 335.316C305.193 335.315 306.286 336.278 306.286 338.243Z" fill="#263238"/>
<path d="M314.783 339.076H309.058C309.163 340.507 310.255 341.458 311.751 341.458C312.584 341.458 313.326 341.158 313.846 340.56L314.367 341.158C313.755 341.886 312.805 342.276 311.727 342.276C309.593 342.276 308.136 340.819 308.136 338.79C308.136 336.76 309.553 335.316 311.48 335.316C313.405 335.316 314.797 336.735 314.797 338.79C314.797 338.867 314.783 338.972 314.783 339.076ZM309.058 338.385H313.911C313.794 337.045 312.819 336.109 311.478 336.109C310.152 336.109 309.176 337.045 309.058 338.385Z" fill="#263238"/>
</g>
<path d="M421.977 278.977H236.356V310.761H421.977V278.977Z" fill="white"/>
<g opacity="0.4">
<path d="M247.476 290.519V294.097H252.186V294.93H247.476V298.794H246.512V289.687H252.758V290.52L247.476 290.519Z" fill="#263238"/>
<path d="M254.217 289.791C254.217 289.439 254.517 289.141 254.894 289.141C255.272 289.141 255.571 289.428 255.571 289.78C255.571 290.157 255.284 290.456 254.894 290.456C254.515 290.453 254.217 290.154 254.217 289.791ZM254.425 291.95H255.348V298.794H254.425V291.95Z" fill="#263238"/>
<path d="M261.372 291.898V292.796C261.294 292.796 261.216 292.783 261.151 292.783C259.719 292.783 258.848 293.694 258.848 295.307V298.794H257.924V291.95H258.81V293.291C259.238 292.38 260.111 291.898 261.372 291.898Z" fill="#263238"/>
<path d="M262.14 298.012L262.555 297.283C263.101 297.713 264.026 298.051 264.988 298.051C266.289 298.051 266.823 297.609 266.823 296.933C266.823 295.151 262.386 296.555 262.386 293.85C262.386 292.732 263.35 291.898 265.093 291.898C265.979 291.898 266.94 292.145 267.514 292.535L267.111 293.277C266.512 292.861 265.797 292.691 265.095 292.691C263.858 292.691 263.313 293.172 263.313 293.823C263.313 295.67 267.749 294.278 267.749 296.906C267.749 298.09 266.709 298.858 264.926 298.858C263.794 298.859 262.7 298.495 262.14 298.012Z" fill="#263238"/>
<path d="M273.057 298.377C272.692 298.702 272.146 298.858 271.612 298.858C270.324 298.858 269.609 298.129 269.609 296.868V292.731H268.386V291.95H269.609V290.453H270.533V291.95H272.614V292.731H270.533V296.815C270.533 297.622 270.95 298.063 271.717 298.063C272.095 298.063 272.472 297.946 272.732 297.713L273.057 298.377Z" fill="#263238"/>
<path d="M285.95 289.686V298.793H285.155L279.302 291.403V298.793H278.339V289.686H279.133L285.001 297.076V289.686H285.95Z" fill="#263238"/>
<path d="M293.888 294.552V298.794H293.002V297.727C292.585 298.429 291.779 298.859 290.647 298.859C289.1 298.859 288.149 298.052 288.149 296.869C288.149 295.815 288.826 294.931 290.791 294.931H292.963V294.514C292.963 293.343 292.299 292.705 291.025 292.705C290.139 292.705 289.307 293.017 288.748 293.512L288.332 292.823C289.021 292.237 290.036 291.899 291.116 291.899C292.885 291.898 293.888 292.783 293.888 294.552ZM292.963 296.738V295.619H290.816C289.488 295.619 289.06 296.14 289.06 296.842C289.06 297.635 289.697 298.13 290.791 298.13C291.832 298.13 292.6 297.635 292.963 296.738Z" fill="#263238"/>
<path d="M307.69 294.826V298.794H306.767V294.917C306.767 293.472 306.038 292.732 304.802 292.732C303.397 292.732 302.512 293.643 302.512 295.203V298.794H301.588V294.917C301.588 293.472 300.859 292.732 299.611 292.732C298.219 292.732 297.321 293.643 297.321 295.203V298.794H296.397V291.95H297.283V293.199C297.764 292.379 298.649 291.898 299.794 291.898C300.926 291.898 301.81 292.379 302.227 293.342C302.722 292.457 303.698 291.898 304.934 291.898C306.598 291.898 307.69 292.861 307.69 294.826Z" fill="#263238"/>
<path d="M316.188 295.659H310.464C310.569 297.09 311.661 298.039 313.157 298.039C313.989 298.039 314.731 297.74 315.252 297.141L315.773 297.74C315.161 298.468 314.211 298.859 313.133 298.859C310.999 298.859 309.542 297.402 309.542 295.372C309.542 293.342 310.959 291.898 312.886 291.898C314.811 291.898 316.203 293.316 316.203 295.372C316.201 295.45 316.188 295.554 316.188 295.659ZM310.464 294.968H315.317C315.2 293.629 314.225 292.691 312.884 292.691C311.556 292.692 310.58 293.629 310.464 294.968Z" fill="#263238"/>
</g>
<path d="M192.893 492.649C192.893 492.649 183.501 484.819 175.449 492.649C167.396 500.479 165.841 548.988 165.841 548.988" stroke="#C64242" stroke-width="0.9446" stroke-miterlimit="10"/>
<path d="M165.174 558.355C165.174 558.355 170.71 501.427 149.866 477.503" stroke="#C64242" stroke-width="0.9446" stroke-miterlimit="10"/>
<path d="M167.158 552.355C167.158 552.355 162.894 487.548 178.527 473.169" stroke="#C64242" stroke-width="0.9446" stroke-miterlimit="10"/>
<path d="M165.174 552.355C165.174 552.355 164.811 509.531 153.193 502.873C141.575 496.216 135.654 517.928 135.654 517.928" stroke="#C64242" stroke-width="0.9446" stroke-miterlimit="10"/>
<path d="M169.764 552.355C169.764 552.355 167.868 519.479 176.87 507.729C185.871 495.979 195.346 512.763 195.346 512.763" stroke="#C64242" stroke-width="0.9446" stroke-miterlimit="10"/>
<path d="M166.627 556.758C166.627 556.758 172.448 479.872 162.815 466.844" stroke="#C64242" stroke-width="0.9446" stroke-miterlimit="10"/>
<path d="M143.245 509.112C143.245 509.112 149.038 511.247 147.315 516.29C145.593 521.332 127.276 529.628 127.276 529.628C127.276 529.628 119.605 522.597 126.65 511.161C133.696 499.726 143.089 505.504 143.245 509.112Z" fill="#C64242"/>
<path opacity="0.2" d="M143.245 509.112C143.245 509.112 149.038 511.247 147.315 516.29C145.593 521.332 127.276 529.628 127.276 529.628C127.276 529.628 119.605 522.597 126.65 511.161C133.696 499.726 143.089 505.504 143.245 509.112Z" fill="black"/>
<path d="M168.427 499.515C168.427 499.515 162.259 499.256 161.908 504.572C161.558 509.888 175.271 524.596 175.271 524.596C175.271 524.596 185.058 521.058 182.955 507.791C180.854 494.526 169.961 496.244 168.427 499.515Z" fill="#C64242"/>
<path opacity="0.2" d="M168.427 499.515C168.427 499.515 162.259 499.256 161.908 504.572C161.558 509.888 175.271 524.596 175.271 524.596C175.271 524.596 185.058 521.058 182.955 507.791C180.854 494.526 169.961 496.244 168.427 499.515Z" fill="black"/>
<path d="M173.65 474.067C173.65 474.067 169.537 473.626 169.869 471.12C170.199 468.615 185.856 462.168 195.092 472.593C195.092 472.593 189.178 482.752 180.628 482.886C172.079 483.019 173.65 474.067 173.65 474.067Z" fill="#C64242"/>
<path opacity="0.2" d="M173.65 474.067C173.65 474.067 169.537 473.626 169.869 471.12C170.199 468.615 185.856 462.168 195.092 472.593C195.092 472.593 189.178 482.752 180.628 482.886C172.079 483.019 173.65 474.067 173.65 474.067Z" fill="black"/>
<path d="M165.987 467.983C165.987 467.983 169.711 469.784 170.754 467.483C171.798 465.182 161.921 451.43 148.568 455.392C148.568 455.392 148.215 467.144 155.401 471.777C162.585 476.412 165.987 467.983 165.987 467.983Z" fill="#C64242"/>
<path opacity="0.2" d="M165.987 467.983C165.987 467.983 169.711 469.784 170.754 467.483C171.798 465.182 161.921 451.43 148.568 455.392C148.568 455.392 148.215 467.144 155.401 471.777C162.585 476.412 165.987 467.983 165.987 467.983Z" fill="black"/>
<path d="M185.458 507.085C185.458 507.085 182.619 504.794 185.682 503.674C188.745 502.556 203.775 502.874 203.931 517.762C203.931 517.762 186.427 520.67 184.259 515C182.094 509.329 185.458 507.085 185.458 507.085Z" fill="#C64242"/>
<path opacity="0.2" d="M185.458 507.085C185.458 507.085 182.619 504.794 185.682 503.674C188.745 502.556 203.775 502.874 203.931 517.762C203.931 517.762 186.427 520.67 184.259 515C182.094 509.329 185.458 507.085 185.458 507.085Z" fill="black"/>
<path d="M149.763 473.694C149.763 473.694 152.602 471.403 149.539 470.283C146.476 469.164 131.446 469.482 131.29 484.37C131.29 484.37 148.794 487.279 150.962 481.607C153.126 475.938 149.763 473.694 149.763 473.694Z" fill="#C64242"/>
<path opacity="0.2" d="M149.763 473.694C149.763 473.694 152.602 471.403 149.539 470.283C146.476 469.164 131.446 469.482 131.29 484.37C131.29 484.37 148.794 487.279 150.962 481.607C153.126 475.938 149.763 473.694 149.763 473.694Z" fill="black"/>
<path d="M159.017 485.686C159.017 485.686 159.267 482.9 157.018 483.992C154.769 485.085 146.934 493.537 155.056 501.559C155.056 501.559 165.989 493.462 164.018 489.246C162.046 485.028 159.017 485.686 159.017 485.686Z" fill="#C64242"/>
<path opacity="0.2" d="M159.017 485.686C159.017 485.686 159.267 482.9 157.018 483.992C154.769 485.085 146.934 493.537 155.056 501.559C155.056 501.559 165.989 493.462 164.018 489.246C162.046 485.028 159.017 485.686 159.017 485.686Z" fill="black"/>
<path d="M187.996 489.657C187.996 489.657 186.299 487.434 188.785 487.159C191.269 486.884 202.406 489.856 199.812 500.972C199.812 500.972 186.245 499.952 185.665 495.334C185.082 490.716 187.996 489.657 187.996 489.657Z" fill="#C64242"/>
<path opacity="0.2" d="M187.996 489.657C187.996 489.657 186.299 487.434 188.785 487.159C191.269 486.884 202.406 489.856 199.812 500.972C199.812 500.972 186.245 499.952 185.665 495.334C185.082 490.716 187.996 489.657 187.996 489.657Z" fill="black"/>
<path d="M144.257 593.624H188.116L193.946 550.974H138.427L144.257 593.624Z" fill="#263238"/>
<path opacity="0.2" d="M144.257 593.624H188.116L193.946 550.974H138.427L144.257 593.624Z" fill="white"/>
<path d="M199.443 547.517V551.569C199.443 554.28 197.246 556.479 194.533 556.479H137.291C134.58 556.479 132.381 554.281 132.381 551.569V547.517H199.443Z" fill="#263238"/>
<path d="M564.851 143.298H524.094C517.163 143.298 511.544 148.918 511.544 155.848V191.319C511.544 198.25 517.164 203.869 524.094 203.869H535.995L533.118 215.068L544.435 203.869H564.851C571.782 203.869 577.401 198.251 577.401 191.319V155.848C577.401 148.918 571.783 143.298 564.851 143.298Z" fill="#C64242"/>
<path opacity="0.7" d="M564.851 143.298H524.094C517.163 143.298 511.544 148.918 511.544 155.848V191.319C511.544 198.25 517.164 203.869 524.094 203.869H535.995L533.118 215.068L544.435 203.869H564.851C571.782 203.869 577.401 198.251 577.401 191.319V155.848C577.401 148.918 571.783 143.298 564.851 143.298Z" fill="white"/>
<path d="M558.771 187.736C566.67 179.837 566.67 167.029 558.771 159.13C550.871 151.23 538.064 151.23 530.164 159.13C522.265 167.029 522.265 179.837 530.164 187.736C538.064 195.636 550.871 195.636 558.771 187.736Z" fill="#C64242"/>
<path d="M542.349 182.466C541.803 182.466 541.285 182.226 540.932 181.811L532.995 172.46C532.331 171.677 532.428 170.505 533.21 169.84C533.991 169.177 535.165 169.271 535.83 170.054L542.349 177.735L553.114 165.051C553.78 164.267 554.953 164.173 555.735 164.837C556.518 165.501 556.614 166.674 555.949 167.457L543.766 181.812C543.413 182.226 542.895 182.466 542.349 182.466Z" fill="white"/>
<path d="M557.791 362.137C557.791 362.137 533.084 359.027 495.663 369.286C495.663 369.286 489.64 302.411 490.357 293.224C491.075 284.038 548.132 286.728 548.132 286.728C548.132 286.728 549.605 313.494 553.276 329.643C556.948 345.791 559.672 359.032 557.791 362.137Z" fill="#C64242"/>
<path opacity="0.2" d="M557.791 362.137C557.791 362.137 533.084 359.027 495.663 369.286C495.663 369.286 489.64 302.411 490.357 293.224C491.075 284.038 548.132 286.728 548.132 286.728C548.132 286.728 549.605 313.494 553.276 329.643C556.948 345.791 559.672 359.032 557.791 362.137Z" fill="black"/>
<path d="M477.61 583.548L487.683 586.4L490.081 570.723L491.372 562.338L481.299 559.487L479.582 570.723L477.61 583.548Z" fill="#E4897B"/>
<path d="M535.522 584.371L545.907 585.747L546.007 570.723L546.077 561.388L535.678 560.026L535.607 570.723L535.522 584.371Z" fill="#E4897B"/>
<path opacity="0.2" d="M535.678 560.026L535.607 570.723H546.007L546.078 561.388L535.678 560.026Z" fill="black"/>
<path opacity="0.2" d="M479.582 570.723H490.081L491.372 562.338L481.299 559.487L479.582 570.723Z" fill="black"/>
<path d="M432.892 298.654L422.893 295.698L424.719 307.118C424.719 307.118 433.799 309.216 434.683 304.492L432.892 298.654Z" fill="#E4897B"/>
<path d="M412.912 298.35L417.815 307.636L424.719 307.116L422.893 295.698L412.912 298.35Z" fill="#E4897B"/>
<path d="M446.699 301.572L430.277 297.896L428.785 305.872L443.694 309.508L446.699 301.572Z" fill="#E4897B"/>
<path d="M496.401 294.375C496.401 294.375 496.046 294.8 495.436 295.524C493.365 297.95 488.3 303.809 483.108 308.86C478.851 312.974 474.539 316.564 471.73 317.287C463.685 319.358 434.446 310.747 434.446 310.747L437.467 298.886C437.467 298.886 464.707 302.504 466.821 302.504C468.424 302.504 484.995 278.499 489.01 276.527L496.401 294.375Z" fill="#C64242"/>
<path opacity="0.2" d="M495.436 295.524C493.365 297.95 488.3 303.809 483.108 308.86C484.158 300.546 487.208 292.914 491.223 288.09C491.648 287.579 492.074 287.154 492.5 286.841L495.436 295.524Z" fill="black"/>
<path d="M477.733 581.976L489.173 581.668C489.601 581.657 489.983 581.944 490.091 582.356L492.494 591.568C492.744 592.523 492.043 593.454 491.054 593.464C486.925 593.505 480.954 593.425 475.767 593.564C469.702 593.727 465.847 593.429 458.735 593.621C454.435 593.737 453.086 589.441 454.872 589.002C463.003 586.997 468.317 587.393 475.242 582.856C475.993 582.363 476.83 582 477.733 581.976Z" fill="#263238"/>
<path d="M476.755 583.445C476.745 583.449 476.733 583.452 476.722 583.455C475.048 583.835 472.06 584.327 470.874 583.345C470.516 583.049 470.346 582.65 470.366 582.156C470.379 581.863 470.512 581.631 470.752 581.488C472.003 580.736 476.286 582.761 476.77 582.992C476.865 583.037 476.922 583.138 476.911 583.242C476.902 583.334 476.84 583.412 476.755 583.445ZM471.098 581.871C471.065 581.884 471.036 581.897 471.009 581.912C470.911 581.971 470.867 582.05 470.861 582.181C470.848 582.515 470.955 582.772 471.189 582.966C471.854 583.517 473.581 583.571 475.881 583.125C474.192 582.382 471.878 581.578 471.098 581.871Z" fill="#C64242"/>
<path d="M476.755 583.445C476.696 583.467 476.631 583.467 476.572 583.442C475.288 582.911 472.701 580.723 472.85 579.54C472.886 579.262 473.07 578.915 473.75 578.825C474.255 578.76 474.722 578.89 475.142 579.211C476.513 580.264 476.896 583.064 476.912 583.184C476.923 583.271 476.888 583.357 476.817 583.41C476.797 583.425 476.776 583.436 476.755 583.445ZM473.565 579.373C473.363 579.449 473.348 579.562 473.343 579.606C473.253 580.316 475.02 582.041 476.338 582.779C476.173 581.962 475.74 580.292 474.839 579.601C474.526 579.36 474.191 579.266 473.816 579.315C473.712 579.329 473.629 579.349 473.565 579.373Z" fill="#C64242"/>
<path d="M535.938 581.976L547.377 581.668C547.806 581.657 548.187 581.944 548.295 582.356L550.698 591.568C550.948 592.523 550.247 593.454 549.258 593.464C545.13 593.505 539.158 593.425 533.972 593.564C527.907 593.727 524.052 593.429 516.94 593.621C512.64 593.737 511.291 589.441 513.077 589.002C521.207 586.997 526.522 587.393 533.447 582.856C534.196 582.363 535.034 582 535.938 581.976Z" fill="#263238"/>
<path d="M534.959 583.445C534.949 583.449 534.938 583.452 534.926 583.455C533.251 583.835 530.264 584.327 529.078 583.345C528.721 583.049 528.551 582.65 528.57 582.156C528.583 581.863 528.717 581.631 528.956 581.488C530.208 580.736 534.491 582.761 534.975 582.992C535.07 583.037 535.126 583.138 535.115 583.242C535.107 583.334 535.044 583.412 534.959 583.445ZM529.303 581.871C529.27 581.884 529.24 581.897 529.213 581.912C529.115 581.971 529.071 582.05 529.067 582.181C529.054 582.515 529.161 582.772 529.395 582.966C530.06 583.517 531.787 583.571 534.086 583.125C532.397 582.382 530.083 581.578 529.303 581.871Z" fill="#C64242"/>
<path d="M534.959 583.445C534.901 583.467 534.836 583.467 534.776 583.442C533.492 582.911 530.906 580.723 531.055 579.54C531.09 579.262 531.275 578.915 531.954 578.825C532.459 578.76 532.927 578.89 533.346 579.211C534.718 580.264 535.101 583.064 535.117 583.184C535.128 583.271 535.092 583.357 535.021 583.41C535.002 583.425 534.98 583.436 534.959 583.445ZM531.77 579.373C531.567 579.449 531.553 579.562 531.547 579.606C531.458 580.316 533.224 582.041 534.542 582.779C534.377 581.962 533.945 580.292 533.044 579.601C532.73 579.36 532.395 579.266 532.022 579.315C531.914 579.329 531.834 579.349 531.77 579.373Z" fill="#C64242"/>
<path d="M556.946 356.036C562.448 379.894 553.007 567.518 553.007 567.518H534.759L526.957 411.154L498.221 567.518L478.72 566.098C491.468 444.972 502.739 372.655 502.739 372.655L502.712 363.517L556.946 356.036Z" fill="#263238"/>
<path opacity="0.4" d="M478.717 566.098L498.224 567.516L520.838 444.428L526.953 411.159L534.756 567.516H553.001C553.001 567.516 562.449 379.891 556.945 356.042L502.707 363.519L502.736 372.655C502.736 372.655 491.471 444.968 478.717 566.098Z" fill="white"/>
<path d="M547.117 267.697C546.458 279.382 546.958 291.036 547.986 301.89C548.742 309.829 549.799 317.335 550.92 324.108C553.543 339.985 556.522 351.884 556.946 356.037C548.999 357.136 519.045 361.27 502.711 363.517C482.935 308.219 490.383 276.032 490.383 276.032C490.383 276.032 496.038 273.616 502.822 271.776C503.714 271.528 504.628 271.304 505.559 271.089C511.581 269.693 521.643 268.533 528.617 267.907C530.084 267.777 531.575 267.683 533.031 267.615C540.439 267.277 547.117 267.697 547.117 267.697Z" fill="#263238"/>
<path d="M518.088 242.813C518.485 250.409 519.292 264.65 525.603 268.26C525.603 268.26 521.674 275.744 513.175 276.505C506.746 277.081 507.173 270.74 507.173 270.74C510.892 267.961 510 263.267 507.169 257.973L518.088 242.813Z" fill="#E4897B"/>
<path opacity="0.2" d="M513.638 248.997L507.175 257.965C507.85 259.216 508.453 260.506 508.879 261.797C511.868 260.602 515.276 256.184 514.79 252.872C514.549 251.219 514.091 249.685 513.638 248.997Z" fill="black"/>
<path d="M490.426 227.54C489.186 231.477 489.865 239.567 495.367 236.937C500.869 234.306 492.557 220.773 490.426 227.54Z" fill="#263238"/>
<path d="M518.797 232.861C519.402 242.98 520.273 248.878 515.811 254.605C509.1 263.22 496.101 260.006 492.474 250.243C489.21 241.454 488.77 226.381 498.146 221.28C507.385 216.253 518.193 222.741 518.797 232.861Z" fill="#E4897B"/>
<path d="M511.702 227.359V216.053C511.702 216.053 523.736 215.159 523.201 221.318C529.866 224.624 526.715 234.993 517.763 240.078C512.857 236.151 513.417 226.694 513.417 226.694C512.888 226.928 512.307 227.148 511.702 227.359Z" fill="#263238"/>
<path d="M523.693 240.763C523.205 243.447 521.515 245.645 519.644 246.876C516.828 248.729 514.365 246.452 514.264 243.253C514.173 240.373 515.53 235.939 518.781 235.369C521.984 234.809 524.252 237.694 523.693 240.763Z" fill="#E4897B"/>
<path d="M503.854 237.378C503.953 238.197 503.6 238.909 503.064 238.968C502.527 239.028 502.012 238.414 501.911 237.595C501.812 236.776 502.165 236.064 502.702 236.005C503.238 235.945 503.754 236.559 503.854 237.378Z" fill="#263238"/>
<path d="M494.579 238.414C494.679 239.232 494.326 239.944 493.789 240.004C493.253 240.064 492.738 239.449 492.637 238.631C492.538 237.812 492.891 237.1 493.427 237.04C493.964 236.981 494.479 237.595 494.579 238.414Z" fill="#263238"/>
<path d="M497.577 238.492C497.577 238.492 496.218 243.25 494.414 245.689C496.001 246.807 498.393 245.911 498.393 245.911L497.577 238.492Z" fill="#DE5753"/>
<path d="M503.171 248.55C502.841 248.634 502.488 248.698 502.112 248.74C501.978 248.755 501.858 248.659 501.842 248.528C501.825 248.394 501.924 248.275 502.053 248.261C505.657 247.854 507.03 245.161 507.045 245.134C507.103 245.015 507.25 244.968 507.369 245.026C507.49 245.086 507.54 245.232 507.48 245.351C507.426 245.459 506.242 247.783 503.171 248.55Z" fill="#263238"/>
<path d="M506.349 234.071C506.186 234.112 506.005 234.067 505.878 233.935C504.373 232.371 502.614 232.672 502.595 232.675C502.331 232.723 502.078 232.549 502.026 232.288C501.975 232.025 502.15 231.773 502.411 231.724C502.503 231.707 504.709 231.328 506.576 233.269C506.762 233.464 506.758 233.769 506.565 233.953C506.502 234.013 506.427 234.051 506.349 234.071Z" fill="#263238"/>
<path d="M490.196 235.678C490.106 235.701 490.01 235.698 489.916 235.665C489.662 235.576 489.527 235.299 489.615 235.048C490.491 232.522 492.654 231.992 492.748 231.956C493.008 231.893 493.271 232.053 493.337 232.312C493.402 232.57 493.246 232.829 492.988 232.895C492.897 232.913 491.234 233.343 490.532 235.37C490.478 235.529 490.347 235.64 490.196 235.678Z" fill="#263238"/>
<path d="M517.045 231.558C517.045 231.558 509.991 228.972 506.712 224.856C506.712 224.856 500.274 226.54 498.955 229.159C498.955 229.159 496.722 227.288 498.394 224.856C498.394 224.856 493.576 225.873 492.62 229.159C492.62 229.159 490.216 228.335 490.359 224.856C490.359 224.856 488.211 225.665 487.533 229.159C487.533 229.159 482.204 218.075 499.781 214.894C499.781 214.894 498.393 214.309 495.663 214.192C495.663 214.192 507.924 209.245 517.652 213.776C527.382 218.309 525.604 227.008 517.045 231.558Z" fill="#263238"/>
<path d="M561.137 365.58L544.127 367.85C544.127 367.85 537.104 318.777 534.011 302.93V269.079L542.907 266.738L549.759 269.079C551.405 274.569 552.852 281.777 554.115 289.792C554.952 295.098 555.704 300.773 556.37 306.519C557.292 314.35 558.059 322.324 558.711 329.786C559.733 341.831 560.414 352.5 560.783 358.997C561.024 363.14 561.137 365.58 561.137 365.58Z" fill="#C64242"/>
<path d="M534.013 302.925C534.013 302.925 535.426 279.051 542.909 266.734C542.909 266.734 542.722 263.21 541.225 262.648C539.729 262.086 534.013 265.454 534.013 265.454C534.013 265.454 530.449 263.023 529.664 264.145C528.88 265.267 526.986 272.86 534.013 302.925Z" fill="#C64242"/>
<path opacity="0.7" d="M534.013 302.925C534.013 302.925 535.426 279.051 542.909 266.734C542.909 266.734 542.722 263.21 541.225 262.648C539.729 262.086 534.013 265.454 534.013 265.454C534.013 265.454 530.449 263.023 529.664 264.145C528.88 265.267 526.986 272.86 534.013 302.925Z" fill="white"/>
<path d="M495.301 372.15L497.245 373.555C497.245 373.555 494.436 357.731 495.571 317.723C495.628 315.793 495.699 313.935 495.77 312.161C497.217 278.311 502.466 272.153 502.806 271.785L497.898 273.459L489.002 276.523C486.378 305.408 495.301 372.15 495.301 372.15Z" fill="#C64242"/>
<path d="M496.072 306.338C496.072 306.338 491.159 283.136 492.62 275.137C494.08 267.138 499.319 270.692 499.319 270.692C499.319 270.692 504.133 266.808 505.562 271.088C505.562 271.088 498.955 275.743 496.072 306.338Z" fill="#C64242"/>
<path opacity="0.7" d="M496.072 306.338C496.072 306.338 491.159 283.136 492.62 275.137C494.08 267.138 499.319 270.692 499.319 270.692C499.319 270.692 504.133 266.808 505.562 271.088C505.562 271.088 498.955 275.743 496.072 306.338Z" fill="white"/>
<path opacity="0.2" d="M556.37 306.519C549.106 302.447 548.142 291.821 548.142 291.821C548.582 291.651 551.277 290.729 554.115 289.792C554.952 295.098 555.704 300.773 556.37 306.519Z" fill="black"/>
<path opacity="0.2" d="M520.838 444.428L526.953 411.159L525.776 393.553C525.776 393.553 517.391 424.084 520.838 444.428Z" fill="black"/>
<path opacity="0.2" d="M560.783 358.998C556.214 358.685 552.256 358.388 552.256 358.388L551.391 339.816C551.391 339.816 552.866 338.582 556.172 338.937C556.172 338.937 557.661 335.305 558.711 329.786C559.733 341.831 560.414 352.5 560.783 358.998Z" fill="black"/>
<path d="M562.342 329.768L553.446 344.051L560.482 348.096L568.839 335.225L562.342 329.768Z" fill="#E4897B"/>
<path d="M549.404 268.9C555.394 269.559 580.838 304.483 581.96 315.013C583.082 325.541 567.014 343.715 567.014 343.715L556.275 337.398C556.275 337.398 567.18 320.642 567.741 316.171C568.303 311.699 547.813 293.366 547.813 293.366C547.813 293.366 545.575 287.981 545.292 280.229C545.006 272.477 549.404 268.9 549.404 268.9Z" fill="#C64242"/>
<path d="M551.384 339.819C551.384 339.819 560.541 341.784 564.22 347.536C564.22 347.536 560.398 359.524 557.663 360.829C554.929 362.134 548.135 362.134 548.135 362.134C548.135 362.134 547.699 348.8 551.384 339.819Z" fill="#C64242"/>
</g>
</svg>
