<svg width="20" height="20" viewBox="0 0 20 20" fill="none" xmlns="http://www.w3.org/2000/svg">
<g clip-path="url(#clip0_109_3035)">
<path d="M6.81982 16.6556C6.81982 17.6253 7.60865 18.4141 8.57841 18.4141C9.54816 18.4141 10.337 17.6253 10.337 16.6556C10.337 15.6858 9.54816 14.897 8.57841 14.897C7.60865 14.897 6.81982 15.6858 6.81982 16.6556ZM8.57841 16.1755C8.84304 16.1755 9.05847 16.3909 9.05847 16.6556C9.05847 16.9202 8.84304 17.1356 8.57841 17.1356C8.31377 17.1356 8.09834 16.9202 8.09834 16.6556C8.09834 16.3909 8.31377 16.1755 8.57841 16.1755Z" fill="black" stroke="black" stroke-width="0.159196"/>
<path d="M12.4546 16.6556C12.4546 17.6253 13.2434 18.4141 14.2132 18.4141C15.1829 18.4141 15.9718 17.6253 15.9718 16.6556C15.9718 15.6858 15.1829 14.897 14.2132 14.897C13.2434 14.897 12.4546 15.6858 12.4546 16.6556ZM14.2132 16.1755C14.4778 16.1755 14.6932 16.3909 14.6932 16.6556C14.6932 16.9202 14.4778 17.1356 14.2132 17.1356C13.9485 17.1356 13.7331 16.9202 13.7331 16.6556C13.7331 16.3909 13.9485 16.1755 14.2132 16.1755Z" fill="black" stroke="black" stroke-width="0.159196"/>
<path d="M5.45892 12.5111L5.53011 12.5467L5.45892 12.5111C4.87368 13.6817 5.72603 15.0562 7.03188 15.0562H16.4514C16.8044 15.0562 17.0906 14.77 17.0906 14.4169C17.0906 14.0639 16.8044 13.7777 16.4514 13.7777H7.03188C6.67486 13.7777 6.44296 13.402 6.60247 13.0829C6.60247 13.0829 6.60247 13.0829 6.60248 13.0829L6.73516 12.8176H16.4514C16.7368 12.8176 16.9876 12.6284 17.066 12.3539L19.3047 4.51862C19.4212 4.11098 19.115 3.70373 18.69 3.70373H4.58373L4.07664 1.92876C4.07664 1.92876 4.07664 1.92876 4.07664 1.92875C3.99826 1.65429 3.74737 1.46508 3.46197 1.46508H0.706148C0.353104 1.46508 0.0668865 1.7513 0.0668865 2.10434C0.0668865 2.45739 0.353104 2.7436 0.706148 2.7436H2.97976L5.65711 12.1148L5.45892 12.5111ZM17.8426 4.98226L15.9692 11.539H6.82231L4.94901 4.98226H17.8426Z" fill="black" stroke="black" stroke-width="0.159196"/>
</g>
<defs>
<clipPath id="clip0_109_3035">
<rect width="19.1035" height="19.1035" fill="white" transform="translate(0.146484 0.387939)"/>
</clipPath>
</defs>
</svg>
