<svg width="43" height="43" viewBox="0 0 43 43" fill="none" xmlns="http://www.w3.org/2000/svg">
<g clip-path="url(#clip0_114_5645)">
<path d="M39.9807 18.7473C39.8161 14.057 37.9167 9.67097 34.5815 6.33578C31.0858 2.83934 26.4397 0.914421 21.5001 0.914421C11.5234 0.914421 3.37158 8.85531 3.02019 18.7473C1.49772 19.4239 0.432129 20.9477 0.432129 22.7188V27.5979C0.432129 29.9938 2.38124 31.9436 4.77782 31.9436C6.3285 31.9436 7.58961 30.6825 7.58961 29.1318V21.1842C7.58961 19.7283 6.47296 18.5411 5.05329 18.4C5.57735 9.78183 12.7516 2.93005 21.5001 2.93005C25.9022 2.93005 30.0417 4.64601 33.1571 7.7615C36.018 10.6223 37.6923 14.3512 37.9443 18.4006C36.5259 18.5431 35.4113 19.7296 35.4113 21.1842V29.1312C35.4113 30.5992 36.5454 31.7938 37.9819 31.9181V33.9263C37.9819 36.1879 36.1416 38.0274 33.8801 38.0274H30.8425C30.6934 37.6015 30.4596 37.2078 30.1317 36.8812C29.5572 36.3041 28.7913 35.9863 27.9756 35.9863H24.8447C24.3952 35.9863 23.9639 36.0817 23.5688 36.2658C22.4911 36.761 21.7951 37.8481 21.7951 39.0353C21.7951 39.8509 22.1129 40.6169 22.6887 41.19C23.2645 41.7671 24.0304 42.0849 24.8447 42.0849H27.9756C29.2737 42.0849 30.4179 41.2457 30.8446 40.0431H33.8801C37.2536 40.0431 39.9975 37.2991 39.9975 33.9263V31.5593C41.5106 30.8787 42.5681 29.3603 42.5681 27.5966V22.7174C42.5681 20.9477 41.5025 19.4239 39.9807 18.7473ZM5.57332 21.1842V29.1312C5.57332 29.5699 5.21655 29.9273 4.77714 29.9273C3.49252 29.9273 2.44708 28.8819 2.44708 27.5973V22.7181C2.44708 21.4328 3.49252 20.388 4.77714 20.388C5.21655 20.388 5.57332 20.7455 5.57332 21.1842ZM28.9868 39.2516C28.8867 39.7259 28.4607 40.0706 27.975 40.0706H24.844C24.5686 40.0706 24.3099 39.9631 24.1124 39.7656C23.9175 39.5714 23.81 39.3121 23.81 39.0366C23.81 38.6342 24.0458 38.2666 24.4154 38.0967C24.5471 38.0348 24.6915 38.0033 24.844 38.0033H27.975C28.2504 38.0033 28.5091 38.1101 28.706 38.3076C28.9008 38.5018 29.0083 38.7611 29.0083 39.0366C29.009 39.1105 29.0009 39.1844 28.9868 39.2516ZM40.5525 27.5973C40.5525 28.8819 39.507 29.9273 38.2224 29.9273C37.7837 29.9273 37.4262 29.5706 37.4262 29.1312V21.1842C37.4262 20.7455 37.783 20.388 38.2224 20.388C39.507 20.388 40.5525 21.4335 40.5525 22.7181V27.5973Z" fill="#CC0000"/>
<path d="M28.0261 27.9446C30.3811 27.9446 32.2966 26.0284 32.2966 23.6742V14.9727C32.2966 13.8346 31.8518 12.7623 31.0442 11.9547C30.2366 11.1471 29.165 10.7023 28.0261 10.7023H14.9743C12.6194 10.7023 10.7039 12.6178 10.7039 14.9727V23.6742C10.7039 26.0291 12.6194 27.9446 14.9743 27.9446H15.0542V30.1994C15.0542 31.0594 15.5669 31.8227 16.3597 32.1445C16.6157 32.2473 16.8817 32.2984 17.1451 32.2984C17.694 32.2984 18.2289 32.0807 18.6206 31.6755L22.3716 27.9446H28.0261ZM21.2462 26.2219L17.1868 30.2592C17.1686 30.278 17.1552 30.2922 17.1169 30.2754C17.0705 30.2565 17.0705 30.2263 17.0705 30.1994V26.9368C17.0705 26.3805 16.6197 25.929 16.0627 25.929H14.975C13.7313 25.929 12.7202 24.9172 12.7202 23.6742V14.9727C12.7202 13.7291 13.7313 12.7179 14.975 12.7179H28.0268C28.6275 12.7179 29.1925 12.9531 29.6198 13.3797C30.0471 13.807 30.2816 14.3727 30.2816 14.9727V23.6742C30.2816 24.9178 29.2698 25.929 28.0268 25.929H21.9571C21.6904 25.929 21.435 26.0345 21.2462 26.2219Z" fill="#CC0000"/>
<path d="M16.604 17.9975C15.7844 17.9975 15.1172 18.6654 15.1172 19.4844C15.1172 20.3034 15.785 20.9712 16.604 20.9712C17.4244 20.9712 18.0922 20.3034 18.0922 19.4844C18.0922 18.6654 17.4251 17.9975 16.604 17.9975Z" fill="#CC0000"/>
<path d="M21.4996 17.9975C20.6799 17.9975 20.0127 18.6654 20.0127 19.4844C20.0127 20.3034 20.6805 20.9712 21.4996 20.9712C22.3206 20.9712 22.9878 20.3034 22.9878 19.4844C22.9878 18.6654 22.3206 17.9975 21.4996 17.9975Z" fill="#CC0000"/>
<path d="M26.3948 17.9975C25.5751 17.9975 24.908 18.6654 24.908 19.4844C24.908 20.3034 25.5758 20.9712 26.3948 20.9712C27.2152 20.9712 27.883 20.3034 27.883 19.4844C27.883 18.6654 27.2152 17.9975 26.3948 17.9975Z" fill="#CC0000"/>
</g>
<defs>
<clipPath id="clip0_114_5645">
<rect width="43" height="43" rx="5" fill="white"/>
</clipPath>
</defs>
</svg>
