<svg width="20" height="20" viewBox="0 0 20 20" fill="none" xmlns="http://www.w3.org/2000/svg">
<g clip-path="url(#clip0_109_3042)">
<path d="M9.32653 19.4914H3.47688C2.16033 19.4914 1.08895 18.42 1.08895 17.1035V8.83964C0.599421 8.28007 0.292969 7.55652 0.292969 6.75577L0.324012 6.53688L2.08074 0.387939H17.6095L19.3973 6.75577C19.3973 7.48966 19.1378 8.15828 18.7183 8.69716C18.333 8.33579 17.9088 8.01819 17.4503 7.74835C17.6501 7.50001 17.7806 7.19356 17.8021 6.85606L16.4091 1.9799H13.8254V4.36783H12.2334V1.9799H7.45757V4.36783H5.86562V1.9799H3.28187L1.88891 6.85606C1.94064 7.68706 2.63394 8.34773 3.47768 8.34773H4.27366C5.15162 8.34773 5.86562 7.63373 5.86562 6.75577H7.45757C7.45757 7.63373 8.17157 8.34773 9.04953 8.34773H9.32733C8.82586 8.75288 8.38409 9.22569 8.0076 9.75024C7.48225 9.56637 7.02377 9.24559 6.66319 8.83725C6.07894 9.50747 5.22963 9.93968 4.27366 9.93968H3.47768C3.20147 9.93968 2.93801 9.89352 2.6817 9.82666V17.1035C2.6817 17.5429 3.0391 17.8995 3.47768 17.8995H7.86989C8.27266 18.5012 8.76537 19.0369 9.32733 19.4914H9.32653ZM19.3965 13.9196C19.3965 16.9913 16.8971 19.4914 13.8246 19.4914C10.7521 19.4914 8.25276 16.9913 8.25276 13.9196C8.25276 10.8479 10.7521 8.34773 13.8246 8.34773C16.8971 8.34773 19.3965 10.8479 19.3965 13.9196ZM17.8045 13.9196C17.8045 11.7251 16.0191 9.93968 13.8246 9.93968C11.6301 9.93968 9.84471 11.7251 9.84471 13.9196C9.84471 16.1141 11.6301 17.8995 13.8246 17.8995C16.0191 17.8995 17.8045 16.1141 17.8045 13.9196ZM13.316 14.6097L12.0185 13.352L10.9097 14.4951L12.3791 15.9191C12.6298 16.1698 12.9626 16.3075 13.3176 16.3075C13.6726 16.3075 14.0053 16.169 14.2505 15.9239L17.0022 13.2183L15.8862 12.0833L13.316 14.6097Z" fill="black"/>
</g>
<defs>
<clipPath id="clip0_109_3042">
<rect width="19.1035" height="19.1035" fill="white" transform="translate(0.292969 0.387939)"/>
</clipPath>
</defs>
</svg>
